# Blender v2.78 (sub 0) OBJ File: 'basic_level.blend'
# www.blender.org
o Plane
v -12.010627 0.023404 -0.033360
v -0.002017 0.023404 -0.033360
v -12.010627 0.023404 -28.084948
v -0.002018 0.023404 -28.084948
v -6.002017 0.023404 -0.033360
v -6.002017 0.023404 -28.084948
v -12.010627 0.023404 -6.033360
v -0.002018 0.023970 -6.105544
v -7.125009 0.023404 -4.910368
v -2.997713 0.023404 -0.033360
v -2.997713 0.023404 -28.084948
v -2.997713 0.023404 -6.033360
v -9.006322 0.023404 -28.084948
v -9.006322 0.023404 -0.033360
v -7.883331 0.023404 -4.910368
v -12.010627 0.023404 -3.029056
v -0.002018 0.023404 -3.029056
v -7.125009 0.023404 -4.152047
v -2.997713 0.023404 -3.029056
v -7.883331 0.023404 -4.152047
v -0.002018 0.023404 -9.037664
v -6.002017 0.023404 -9.037664
v -12.010627 0.023404 -9.037664
v -2.997713 0.023404 -9.037664
v -9.006322 0.023404 -9.037664
v 12.006591 0.023404 -0.033360
v 12.006591 0.023404 -28.084948
v 5.997982 0.023404 -0.033360
v 5.997982 0.023404 -28.084948
v 12.006591 0.023404 -6.033360
v 5.997982 0.023404 -6.033360
v 9.002286 0.023404 -0.033360
v 9.002286 0.023404 -28.084948
v 9.002286 0.023404 -6.033360
v 2.993678 0.023404 -28.084948
v 2.993678 0.023404 -0.033360
v 2.993678 0.023404 -6.033360
v 12.006591 0.023404 -3.029056
v 5.997982 0.023404 -3.029056
v 8.937511 0.023403 -2.944069
v 2.993678 0.023404 -3.029056
v 12.006591 0.023404 -9.037664
v 5.997982 0.023404 -9.037664
v 9.002286 0.023404 -9.037664
v 2.993678 0.023404 -9.037664
v -0.002017 0.023404 11.975248
v 12.006591 0.023404 11.975248
v 5.997982 0.023404 11.975248
v -0.002017 0.023404 5.966640
v 12.006591 0.023404 5.966640
v 5.997982 0.023404 5.966640
v 9.002286 0.023404 11.975248
v 9.002286 0.023404 5.966640
v 2.993678 0.023404 11.975248
v 2.993678 0.023404 5.966640
v -0.002017 0.023404 8.970943
v 12.006591 0.023404 8.970943
v 5.997982 0.023404 8.970943
v 9.002286 0.023404 8.970943
v 2.993678 0.023404 8.970943
v 12.006591 0.023404 2.962336
v 5.997982 0.023404 2.962336
v -0.002017 0.023404 2.962336
v 9.002286 0.023404 2.962336
v 2.993678 0.023404 2.962336
v -12.010627 0.023404 11.975248
v -6.002017 0.023404 11.975248
v -12.010627 0.023404 5.966640
v -6.002017 2.582062 5.966640
v -2.997713 0.023404 11.975248
v -2.997713 2.582062 5.966640
v -9.006322 0.023404 11.975248
v -9.006322 0.023404 5.966640
v -12.010627 0.023404 8.970943
v -6.002017 0.023404 8.970943
v -2.997713 0.023404 8.970943
v -9.006322 0.023404 8.970943
v -6.002017 2.582062 2.962336
v -12.010627 0.023404 2.962336
v -2.997713 2.582062 2.962336
v -9.006322 0.023404 2.962336
v 12.006591 1.023404 8.970943
v 12.006591 1.023404 5.966640
v 9.002286 1.023404 5.966640
v 9.002286 1.023404 8.970943
v 12.006591 2.023404 5.966640
v 9.002286 2.023404 5.966640
v 12.006591 2.023404 2.962336
v 9.002286 2.023404 2.962336
v 9.002286 3.023404 -0.033360
v 12.006591 3.023404 -0.033360
v 9.002286 3.023404 2.962336
v 12.006591 3.023404 2.962336
v 9.002286 4.023404 -0.033360
v 12.006591 4.023404 -0.033360
v 12.006591 4.023404 -3.029056
v 9.002286 4.023404 -3.029056
v 12.006591 5.023404 -3.029056
v 12.006591 5.023404 -6.033360
v 9.002286 5.023404 -6.033360
v 9.002286 5.023404 -3.029056
v -0.002018 5.023404 -3.029056
v -0.002018 5.023404 -6.033360
v -2.997713 5.023404 -6.033360
v -2.997713 5.023404 -3.029056
v 8.937511 4.023402 -2.944069
v 9.002286 4.023404 -6.033360
v 12.006591 4.023404 -3.029056
v 12.006591 4.023404 -6.033360
v 0.909579 4.023404 -3.816556
v -2.997713 4.023404 -3.029056
v -2.997713 4.023404 -6.033360
v 0.909579 4.023404 -5.245859
v -6.002017 0.023404 -3.029056
v -6.002017 0.023404 -6.033360
v -9.006322 0.023404 -6.033360
v -9.006322 0.023404 -3.029056
v -7.125009 5.023404 -4.152047
v -7.125009 5.023404 -4.910368
v -7.883331 5.023404 -4.910368
v -7.883331 5.023404 -4.152047
v -7.883331 4.273404 -4.152047
v -7.883331 4.273404 -4.910368
v -7.125009 4.273404 -4.910368
v -7.125009 4.273404 -4.152047
v -10.146818 5.023404 -4.152047
v -10.146818 5.023404 -4.910368
v -10.146818 4.273404 -4.152047
v -10.146818 4.273404 -4.910368
v 2.035868 4.023404 -3.816556
v 2.893214 5.023404 -3.029056
v 2.035868 4.023404 -5.245859
v 2.893214 5.023404 -6.033360
v -0.002018 4.023404 -6.033360
v -0.002018 4.023404 -3.029056
v 2.893214 4.023404 -6.033360
v 2.893214 4.023404 -3.029056
v 0.909579 0.966270 -5.318043
v 0.909579 0.965704 -3.816556
v 2.035868 0.965704 -5.245859
v 2.035868 0.965704 -3.816556
v 5.947751 3.284370 -3.029056
v 5.947751 4.284370 -3.029056
v 5.947751 3.284370 -6.033360
v 5.947751 4.284370 -6.033360
v -9.344749 4.273404 -4.910368
v -9.344749 5.023404 -4.910368
v -9.344749 5.023404 -4.152047
v -9.344749 4.273404 -4.152047
v -7.883331 2.180708 -4.910368
v -7.125009 2.180708 -4.152047
v -7.883331 2.180708 -4.152047
v -7.125009 2.180708 -4.910368
v -7.883331 2.949048 -4.152047
v -7.125009 2.949048 -4.910368
v -7.883331 2.949048 -4.910368
v -7.125009 2.949048 -4.152047
v -0.002018 0.023404 -12.616066
v -6.002017 0.023404 -12.616066
v -2.997713 0.023404 -12.616066
v -9.006322 0.023404 -12.616066
v -12.010627 0.023404 -12.616066
v 12.006591 0.023404 -12.616066
v 5.997982 0.023404 -12.616066
v 9.002286 0.023404 -12.616066
v 2.993678 0.023404 -12.616066
v -0.002018 0.023404 -16.467609
v -6.002017 0.023404 -16.467609
v -2.997713 0.023404 -16.467609
v -9.006322 0.023404 -16.467609
v 12.006591 0.023404 -16.467609
v 5.997982 0.023404 -16.467609
v 9.002286 0.023404 -16.467609
v 2.993678 0.023404 -16.467609
v -12.010627 0.023404 -16.467609
v -0.002018 0.023404 -20.231628
v -6.002017 0.023404 -20.231628
v -2.997713 0.023404 -20.231628
v -9.006322 0.023404 -20.231628
v 12.006591 0.023404 -20.231628
v 5.997982 0.023404 -20.231628
v 9.002286 0.023404 -20.231628
v 2.993678 0.023404 -20.231628
v -12.010627 0.023404 -20.231628
v -0.002018 0.023404 -24.076603
v -6.002017 0.023404 -24.076603
v -2.997713 0.023404 -24.076603
v -9.006322 0.023404 -24.076603
v 12.006591 0.023404 -24.076603
v 5.997982 0.023404 -24.076603
v 9.002286 0.023404 -24.076603
v 2.993678 0.023404 -24.076603
v -12.010627 0.023404 -24.076603
vt 0.2330 0.9768
vt 0.1749 0.9999
vt 0.1749 0.9768
vt 0.1167 0.9768
vt 0.0584 0.9999
vt 0.0584 0.9768
vt 0.2721 0.4461
vt 0.2722 0.4461
vt 0.2722 0.4461
vt 0.3744 0.3575
vt 0.3671 0.3615
vt 0.3638 0.3617
vt 0.3366 0.3596
vt 0.3255 0.4396
vt 0.2794 0.3964
vt 0.1167 0.9999
vt 0.2118 0.4415
vt 0.2007 0.5719
vt 0.1353 0.5003
vt 0.0001 0.9999
vt 0.0001 0.9768
vt 0.1623 0.3687
vt 0.0718 0.4176
vt 0.2378 0.3338
vt 0.3053 0.3095
vt 0.3687 0.3448
vt 0.0584 0.5722
vt 0.0001 0.6304
vt 0.0001 0.5722
vt 0.1749 0.5722
vt 0.1167 0.6304
vt 0.1167 0.5722
vt 0.0584 0.6304
vt 0.2330 0.5736
vt 0.1749 0.6304
vt 0.4660 0.9768
vt 0.4077 0.9999
vt 0.4077 0.9768
vt 0.3494 0.9768
vt 0.2911 0.9999
vt 0.2911 0.9768
vt 0.4277 0.3397
vt 0.4012 0.3587
vt 0.4010 0.3363
vt 0.4268 0.3534
vt 0.4221 0.3543
vt 0.3494 0.9999
vt 0.3901 0.3547
vt 0.2330 0.9999
vt 0.3586 0.2984
vt 0.4451 0.3117
vt 0.4423 0.3566
vt 0.4941 0.3465
vt 0.4780 0.3615
vt 0.4767 0.3389
vt 0.4050 0.2987
vt 0.2911 0.6304
vt 0.2330 0.6304
vt 0.4077 0.5722
vt 0.3494 0.6304
vt 0.3494 0.5722
vt 0.2911 0.5722
vt 0.4660 0.5722
vt 0.4077 0.6304
vt 0.5217 0.3052
vt 0.5136 0.3568
vt 0.4710 0.2694
vt 0.4154 0.2484
vt 0.5343 0.1286
vt 0.4306 0.1846
vt 0.4479 0.1065
vt 0.7612 0.1640
vt 0.6488 0.1847
vt 0.6345 0.1614
vt 0.5017 0.2123
vt 0.3576 0.1713
vt 0.3648 0.0941
vt 0.3553 0.2406
vt 0.4621 0.0185
vt 0.3729 0.0074
vt 0.6507 0.0497
vt 0.5531 0.0342
vt 0.7631 0.0515
vt 0.5710 0.2667
vt 0.5520 0.3194
vt 0.5669 0.2991
vt 0.5774 0.3016
vt 0.2779 0.2372
vt 0.1276 0.2822
vt 0.1914 0.0921
vt 0.1096 0.1876
vt 0.1001 0.0948
vt 0.2809 0.0913
vt 0.2713 0.1828
vt 0.2118 0.1880
vt 0.2216 0.2460
vt 0.0059 0.2002
vt 0.0021 0.0994
vt 0.0156 0.3126
vt 0.0975 0.0001
vt 0.0001 0.0021
vt 0.2834 0.0021
vt 0.1914 0.0001
vt 0.7480 0.1872
vt 0.6274 0.2922
vt 0.9060 0.2829
vt 0.5405 0.3005
vt 0.5617 0.2842
vt 0.5529 0.3092
vt 0.5404 0.3359
vt 0.5252 0.3327
vt 0.5660 0.3416
vt 0.4866 0.3623
vt 0.4705 0.3752
vt 0.5056 0.3580
vt 0.4028 0.3555
vt 0.4062 0.3594
vt 0.4052 0.3611
vt 0.4014 0.3539
vt 0.4081 0.3648
vt 0.4085 0.3587
vt 0.4066 0.3552
vt 0.4075 0.3540
vt 0.3760 0.3584
vt 0.3705 0.3657
vt 0.3693 0.3671
vt 0.3776 0.3623
vt 0.3768 0.3620
vt 0.3878 0.3606
vt 0.3886 0.3593
vt 0.4164 0.3448
vt 0.4067 0.3408
vt 0.3642 0.3848
vt 0.3814 0.3590
vt 0.3843 0.3562
vt 0.3874 0.3583
vt 0.3882 0.3589
vt 0.3797 0.3656
vt 0.3973 0.3599
vt 0.3976 0.3604
vt 0.2737 0.4368
vt 0.2812 0.4453
vt 0.2723 0.5066
vt 0.2720 0.4559
vt 0.2620 0.4460
vt 0.2722 0.4461
vt 0.2722 0.4461
vt 0.2722 0.4461
vt 0.2722 0.4461
vt 0.2722 0.4460
vt 0.2721 0.4461
vt 0.2722 0.4461
vt 0.2722 0.4461
vt 0.2721 0.4462
vt 0.2723 0.4460
vt 0.2722 0.4459
vt 0.2720 0.4461
vt 0.2722 0.4461
vt 0.2722 0.4461
vt 0.2722 0.4461
vt 0.2721 0.4461
vt 0.2722 0.4461
vt 0.3973 0.3612
vt 0.3977 0.3593
vt 0.3804 0.3576
vt 0.3851 0.3583
vt 0.3844 0.3576
vt 0.3822 0.3506
vt 0.3894 0.3493
vt 0.2722 0.4465
vt 0.2723 0.4454
vt 0.2717 0.4461
vt 0.2728 0.4460
vt 0.2330 0.8152
vt 0.3494 0.8152
vt 0.2911 0.8152
vt 0.4660 0.6304
vt 0.4077 0.8152
vt 0.0001 0.8152
vt 0.1167 0.8152
vt 0.0584 0.8152
vt 0.1749 0.8152
vt 0.2330 0.9075
vt 0.3494 0.9075
vt 0.2911 0.9075
vt 0.4660 0.8152
vt 0.4077 0.9075
vt 0.0001 0.9075
vt 0.1167 0.9075
vt 0.0584 0.9075
vt 0.1749 0.9075
vt 0.2330 0.9537
vt 0.3494 0.9537
vt 0.2911 0.9537
vt 0.4660 0.9075
vt 0.4077 0.9537
vt 0.0001 0.9537
vt 0.1167 0.9537
vt 0.0584 0.9537
vt 0.1749 0.9537
vt 0.4660 0.9537
vt 0.4660 0.9999
vt 0.7692 0.2998
vt 0.5439 0.3556
vt 0.4903 0.3733
vn 0.0000 1.0000 0.0000
vn 0.0000 0.0000 -1.0000
vn 0.0000 0.0000 1.0000
vn -0.0002 1.0000 0.0000
vn 0.7013 0.7129 0.0000
vn 0.0000 1.0000 -0.0002
vn -1.0000 0.0000 0.0000
vn 1.0000 0.0000 0.0000
vn 0.5447 0.6377 -0.5447
vn 0.5451 0.6382 0.5436
vn 0.0000 0.7613 0.6484
vn 0.0000 0.7604 -0.6495
vn -0.6484 0.7613 0.0000
vn 0.6495 0.7604 0.0000
vn -0.9999 0.0162 0.0000
vn 0.0276 0.0829 0.9962
vn -0.9998 0.0000 -0.0210
vn 0.0640 0.0236 -0.9977
vn -0.0241 0.0180 -0.9995
vn -0.2352 0.9720 0.0000
vn 0.6715 0.7410 0.0000
vn -0.2352 -0.9720 0.0000
vn 0.0000 -1.0000 0.0000
vn -0.7187 0.6954 0.0001
vn 0.0000 0.6413 0.7673
vn 0.0188 0.6304 -0.7761
vn 0.2398 -0.9708 0.0050
vn -0.0284 0.0000 0.9996
vn 0.2352 0.9720 0.0000
vn -0.6789 -0.7343 0.0000
vn 0.0002 1.0000 0.0000
vn -0.5436 0.6382 -0.5451
vn -0.5440 0.6388 0.5440
vn -0.9998 0.0000 0.0222
vn -0.7188 0.6952 0.0003
vn 0.0479 0.6687 -0.7420
vn 0.2352 -0.9720 0.0000
vn -0.0208 0.0860 0.9961
s off
f 185/1/1 11/2/1 187/3/1
f 186/4/1 13/5/1 188/6/1
f 146/7/2 127/8/2 147/9/2
f 135/10/3 105/11/3 111/12/3
f 19/13/1 115/14/1 114/15/1
f 187/3/1 6/16/1 186/4/1
f 117/17/1 7/18/1 16/19/1
f 188/6/1 3/20/1 193/21/1
f 14/22/1 16/19/1 1/23/1
f 5/24/1 19/13/1 114/15/1
f 10/25/1 17/26/1 19/13/1
f 5/24/1 117/17/1 14/22/1
f 116/27/1 23/28/1 7/29/1
f 12/30/1 22/31/1 115/32/1
f 115/32/1 25/33/1 116/27/1
f 8/34/4 24/35/4 12/30/4
f 189/36/1 33/37/1 191/38/1
f 190/39/1 35/40/1 192/41/1
f 39/42/1 37/43/1 41/44/1
f 39/42/1 34/45/1 31/46/1
f 191/38/1 29/47/1 190/39/1
f 140/48/5 41/44/5 37/43/5
f 192/41/1 4/49/1 185/1/1
f 2/50/1 41/44/1 17/26/1
f 28/51/1 40/52/1 39/42/1
f 26/53/3 94/54/3 32/55/3
f 28/51/1 41/44/1 36/56/1
f 8/34/6 45/57/6 21/58/6
f 34/59/1 43/60/1 31/61/1
f 31/61/1 45/57/1 37/62/1
f 30/63/1 44/64/1 34/59/1
f 64/65/7 90/66/7 32/55/7
f 62/67/1 36/56/1 65/68/1
f 58/69/1 55/70/1 60/71/1
f 57/72/3 85/73/3 59/74/3
f 59/74/1 51/75/1 58/69/1
f 64/65/1 28/51/1 62/67/1
f 60/71/1 49/76/1 56/77/1
f 65/68/1 2/50/1 63/78/1
f 54/79/1 56/77/1 46/80/1
f 52/81/1 58/69/1 48/82/1
f 47/83/1 59/74/1 52/81/1
f 48/82/1 60/71/1 54/79/1
f 55/70/1 63/78/1 49/76/1
f 53/84/1 62/67/1 51/75/1
f 51/75/1 65/68/1 55/70/1
f 61/85/8 86/86/8 50/87/8
f 63/78/9 10/25/9 80/88/9
f 81/89/1 5/24/1 14/22/1
f 75/90/1 73/91/1 77/92/1
f 76/93/10 49/76/10 71/94/10
f 76/93/11 69/95/11 75/90/11
f 78/96/12 10/25/12 5/24/12
f 77/92/1 68/97/1 74/98/1
f 81/89/1 1/23/1 79/99/1
f 72/100/1 74/98/1 66/101/1
f 70/102/1 75/90/1 67/103/1
f 46/80/1 76/93/1 70/102/1
f 67/103/1 77/92/1 72/100/1
f 73/91/1 79/99/1 68/97/1
f 71/94/1 78/96/1 69/95/1
f 69/95/13 81/89/13 73/91/13
f 49/76/14 80/88/14 71/94/14
f 82/104/1 84/105/1 85/73/1
f 59/74/7 84/105/7 53/84/7
f 50/106/8 82/104/8 57/72/8
f 86/86/1 89/107/1 87/108/1
f 50/87/3 87/108/3 53/84/3
f 64/65/2 88/109/2 61/85/2
f 53/84/7 89/107/7 64/65/7
f 93/110/1 90/66/1 92/111/1
f 26/112/8 93/110/8 61/85/8
f 61/85/3 92/111/3 64/65/3
f 95/113/1 97/114/1 94/54/1
f 40/52/15 94/54/15 97/114/15
f 38/115/8 95/113/8 26/53/8
f 98/116/1 100/117/1 101/118/1
f 108/119/16 101/118/16 106/120/16
f 107/121/2 99/122/2 109/123/2
f 109/123/8 98/116/8 108/119/8
f 102/124/1 104/125/1 105/11/1
f 112/126/2 103/127/2 134/128/2
f 134/128/2 133/129/2 136/130/2
f 111/12/7 104/125/7 112/126/7
f 30/131/8 108/119/8 38/132/8
f 34/45/2 109/123/2 30/131/2
f 34/45/17 106/120/17 107/121/17
f 19/13/7 112/126/7 12/133/7
f 113/134/18 140/48/18 138/135/18
f 131/136/3 135/10/3 137/137/3
f 17/26/8 134/128/8 135/10/8
f 12/133/19 134/128/19 8/138/19
f 17/26/3 111/12/3 19/13/3
f 143/139/20 100/117/20 145/140/20
f 18/141/1 115/14/1 9/142/1
f 9/142/1 116/143/1 15/144/1
f 15/144/1 117/17/1 20/145/1
f 18/141/1 117/17/1 114/15/1
f 118/146/1 120/147/1 121/148/1
f 124/149/8 118/146/8 125/150/8
f 125/150/3 121/148/3 122/151/3
f 123/152/2 119/153/2 124/149/2
f 156/154/2 124/149/2 155/155/2
f 157/156/3 122/151/3 154/157/3
f 155/155/8 125/150/8 157/156/8
f 154/157/7 123/152/7 156/154/7
f 128/158/7 127/8/7 129/159/7
f 148/160/3 128/158/3 149/161/3
f 149/161/21 156/154/21 146/7/21
f 147/9/1 126/162/1 148/160/1
f 102/124/1 133/129/1 103/127/1
f 143/139/3 137/137/3 142/163/3
f 137/137/22 144/164/22 142/163/22
f 136/130/2 145/140/2 144/164/2
f 110/165/23 134/128/23 113/134/23
f 113/134/23 136/130/23 132/166/23
f 110/165/23 137/137/23 135/10/23
f 132/166/23 137/137/23 130/167/23
f 139/168/24 8/138/24 17/26/24
f 110/165/3 141/169/3 130/167/3
f 113/134/7 139/168/7 110/165/7
f 130/167/8 140/48/8 132/166/8
f 141/169/25 17/26/25 41/44/25
f 138/135/26 37/43/26 8/138/26
f 107/121/2 145/140/2 100/117/2
f 142/163/27 107/121/27 106/120/27
f 106/120/28 143/139/28 142/163/28
f 131/136/29 145/140/29 133/129/29
f 120/147/1 148/160/1 121/148/1
f 122/151/23 146/7/23 123/152/23
f 121/148/3 149/161/3 122/151/3
f 123/152/2 147/9/2 120/147/2
f 20/145/7 150/170/7 15/144/7
f 9/142/8 151/171/8 18/141/8
f 18/141/3 152/172/3 20/145/3
f 15/144/2 153/173/2 9/142/2
f 149/161/3 152/172/3 154/157/3
f 153/173/8 157/156/8 151/171/8
f 151/171/3 154/157/3 152/172/3
f 150/170/2 155/155/2 153/173/2
f 150/170/30 128/158/30 129/159/30
f 146/7/2 150/170/2 129/159/2
f 45/57/1 158/174/1 21/58/1
f 44/64/1 164/175/1 43/60/1
f 43/60/1 166/176/1 45/57/1
f 42/177/1 165/178/1 44/64/1
f 25/33/1 162/179/1 23/28/1
f 24/35/1 159/180/1 22/31/1
f 22/31/1 161/181/1 25/33/1
f 21/58/1 160/182/1 24/35/1
f 166/176/1 167/183/1 158/174/1
f 165/178/1 172/184/1 164/175/1
f 164/175/1 174/185/1 166/176/1
f 163/186/1 173/187/1 165/178/1
f 161/181/1 175/188/1 162/179/1
f 160/182/1 168/189/1 159/180/1
f 159/180/1 170/190/1 161/181/1
f 158/174/1 169/191/1 160/182/1
f 174/185/1 176/192/1 167/183/1
f 173/187/1 181/193/1 172/184/1
f 172/184/1 183/194/1 174/185/1
f 171/195/1 182/196/1 173/187/1
f 170/190/1 184/197/1 175/188/1
f 169/191/1 177/198/1 168/189/1
f 168/189/1 179/199/1 170/190/1
f 167/183/1 178/200/1 169/191/1
f 183/194/1 185/1/1 176/192/1
f 182/196/1 190/39/1 181/193/1
f 181/193/1 192/41/1 183/194/1
f 180/201/1 191/38/1 182/196/1
f 179/199/1 193/21/1 184/197/1
f 178/200/1 186/4/1 177/198/1
f 177/198/1 188/6/1 179/199/1
f 176/192/1 187/3/1 178/200/1
f 185/1/1 4/49/1 11/2/1
f 186/4/1 6/16/1 13/5/1
f 146/7/2 129/159/2 127/8/2
f 135/10/3 102/124/3 105/11/3
f 19/13/1 12/133/1 115/14/1
f 187/3/1 11/2/1 6/16/1
f 117/17/1 116/143/1 7/18/1
f 188/6/1 13/5/1 3/20/1
f 14/22/1 117/17/1 16/19/1
f 5/24/1 10/25/1 19/13/1
f 10/25/1 2/50/1 17/26/1
f 5/24/1 114/15/1 117/17/1
f 116/27/1 25/33/1 23/28/1
f 12/30/1 24/35/1 22/31/1
f 115/32/1 22/31/1 25/33/1
f 8/34/6 21/58/6 24/35/6
f 189/36/1 27/202/1 33/37/1
f 190/39/1 29/47/1 35/40/1
f 39/42/1 31/46/1 37/43/1
f 39/42/1 40/52/1 34/45/1
f 191/38/1 33/37/1 29/47/1
f 140/48/5 141/169/5 41/44/5
f 192/41/1 35/40/1 4/49/1
f 2/50/1 36/56/1 41/44/1
f 28/51/1 32/55/1 40/52/1
f 26/53/3 95/113/3 94/54/3
f 28/51/1 39/42/1 41/44/1
f 8/34/31 37/62/31 45/57/31
f 34/59/1 44/64/1 43/60/1
f 31/61/1 43/60/1 45/57/1
f 30/63/1 42/177/1 44/64/1
f 64/65/7 92/111/7 90/66/7
f 62/67/1 28/51/1 36/56/1
f 58/69/1 51/75/1 55/70/1
f 57/72/3 82/104/3 85/73/3
f 59/74/1 53/84/1 51/75/1
f 64/65/1 32/55/1 28/51/1
f 60/71/1 55/70/1 49/76/1
f 65/68/1 36/56/1 2/50/1
f 54/79/1 60/71/1 56/77/1
f 52/81/1 59/74/1 58/69/1
f 47/83/1 57/72/1 59/74/1
f 48/82/1 58/69/1 60/71/1
f 55/70/1 65/68/1 63/78/1
f 53/84/1 64/65/1 62/67/1
f 51/75/1 62/67/1 65/68/1
f 61/85/8 88/109/8 86/86/8
f 63/78/1 2/50/1 10/25/1
f 81/89/32 78/96/32 5/24/32
f 75/90/33 69/95/33 73/91/33
f 76/93/1 56/77/1 49/76/1
f 76/93/11 71/94/11 69/95/11
f 78/96/12 80/88/12 10/25/12
f 77/92/1 73/91/1 68/97/1
f 81/89/1 14/22/1 1/23/1
f 72/100/1 77/92/1 74/98/1
f 70/102/1 76/93/1 75/90/1
f 46/80/1 56/77/1 76/93/1
f 67/103/1 75/90/1 77/92/1
f 73/91/1 81/89/1 79/99/1
f 71/94/1 80/88/1 78/96/1
f 69/95/13 78/96/13 81/89/13
f 49/76/14 63/78/14 80/88/14
f 82/104/1 83/203/1 84/105/1
f 59/74/7 85/73/7 84/105/7
f 50/106/8 83/203/8 82/104/8
f 86/86/1 88/109/1 89/107/1
f 50/87/3 86/86/3 87/108/3
f 64/65/2 89/107/2 88/109/2
f 53/84/7 87/108/7 89/107/7
f 93/110/1 91/204/1 90/66/1
f 26/112/8 91/204/8 93/110/8
f 61/85/3 93/110/3 92/111/3
f 95/113/1 96/205/1 97/114/1
f 40/52/34 32/55/34 94/54/34
f 38/115/8 96/205/8 95/113/8
f 98/116/1 99/122/1 100/117/1
f 108/119/3 98/116/3 101/118/3
f 107/121/2 100/117/2 99/122/2
f 109/123/8 99/122/8 98/116/8
f 102/124/1 103/127/1 104/125/1
f 112/126/2 104/125/2 103/127/2
f 134/128/2 103/127/2 133/129/2
f 111/12/7 105/11/7 104/125/7
f 30/131/8 109/123/8 108/119/8
f 34/45/2 107/121/2 109/123/2
f 34/45/17 40/52/17 106/120/17
f 19/13/7 111/12/7 112/126/7
f 113/134/2 132/166/2 140/48/2
f 131/136/3 102/124/3 135/10/3
f 17/26/8 8/138/8 134/128/8
f 12/133/2 112/126/2 134/128/2
f 17/26/3 135/10/3 111/12/3
f 143/139/20 101/118/20 100/117/20
f 18/141/1 114/15/1 115/14/1
f 9/142/1 115/14/1 116/143/1
f 15/144/1 116/143/1 117/17/1
f 18/141/1 20/145/1 117/17/1
f 118/146/1 119/153/1 120/147/1
f 124/149/8 119/153/8 118/146/8
f 125/150/3 118/146/3 121/148/3
f 123/152/2 120/147/2 119/153/2
f 156/154/2 123/152/2 124/149/2
f 157/156/3 125/150/3 122/151/3
f 155/155/8 124/149/8 125/150/8
f 154/157/7 122/151/7 123/152/7
f 128/158/7 126/162/7 127/8/7
f 148/160/3 126/162/3 128/158/3
f 149/161/21 154/157/21 156/154/21
f 147/9/1 127/8/1 126/162/1
f 102/124/1 131/136/1 133/129/1
f 143/139/3 131/136/3 137/137/3
f 137/137/22 136/130/22 144/164/22
f 136/130/2 133/129/2 145/140/2
f 110/165/23 135/10/23 134/128/23
f 113/134/23 134/128/23 136/130/23
f 110/165/23 130/167/23 137/137/23
f 132/166/23 136/130/23 137/137/23
f 139/168/35 138/135/35 8/138/35
f 110/165/3 139/168/3 141/169/3
f 113/134/7 138/135/7 139/168/7
f 130/167/8 141/169/8 140/48/8
f 141/169/25 139/168/25 17/26/25
f 138/135/36 140/48/36 37/43/36
f 107/121/2 144/164/2 145/140/2
f 142/163/37 144/164/37 107/121/37
f 106/120/38 101/118/38 143/139/38
f 131/136/29 143/139/29 145/140/29
f 120/147/1 147/9/1 148/160/1
f 122/151/23 149/161/23 146/7/23
f 121/148/3 148/160/3 149/161/3
f 123/152/2 146/7/2 147/9/2
f 20/145/7 152/172/7 150/170/7
f 9/142/8 153/173/8 151/171/8
f 18/141/3 151/171/3 152/172/3
f 15/144/2 150/170/2 153/173/2
f 149/161/3 128/158/3 152/172/3
f 153/173/8 155/155/8 157/156/8
f 151/171/3 157/156/3 154/157/3
f 150/170/2 156/154/2 155/155/2
f 150/170/30 152/172/30 128/158/30
f 146/7/2 156/154/2 150/170/2
f 45/57/1 166/176/1 158/174/1
f 44/64/1 165/178/1 164/175/1
f 43/60/1 164/175/1 166/176/1
f 42/177/1 163/186/1 165/178/1
f 25/33/1 161/181/1 162/179/1
f 24/35/1 160/182/1 159/180/1
f 22/31/1 159/180/1 161/181/1
f 21/58/1 158/174/1 160/182/1
f 166/176/1 174/185/1 167/183/1
f 165/178/1 173/187/1 172/184/1
f 164/175/1 172/184/1 174/185/1
f 163/186/1 171/195/1 173/187/1
f 161/181/1 170/190/1 175/188/1
f 160/182/1 169/191/1 168/189/1
f 159/180/1 168/189/1 170/190/1
f 158/174/1 167/183/1 169/191/1
f 174/185/1 183/194/1 176/192/1
f 173/187/1 182/196/1 181/193/1
f 172/184/1 181/193/1 183/194/1
f 171/195/1 180/201/1 182/196/1
f 170/190/1 179/199/1 184/197/1
f 169/191/1 178/200/1 177/198/1
f 168/189/1 177/198/1 179/199/1
f 167/183/1 176/192/1 178/200/1
f 183/194/1 192/41/1 185/1/1
f 182/196/1 191/38/1 190/39/1
f 181/193/1 190/39/1 192/41/1
f 180/201/1 189/36/1 191/38/1
f 179/199/1 188/6/1 193/21/1
f 178/200/1 187/3/1 186/4/1
f 177/198/1 186/4/1 188/6/1
f 176/192/1 185/1/1 187/3/1
