# Blender v2.78 (sub 0) OBJ File: 'basic_level.blend'
# www.blender.org
o Plane.001
v -0.002018 0.023970 -6.105544
v -2.997713 0.023404 -6.033360
v -0.002018 0.023404 -3.029056
v -2.997713 0.023404 -3.029056
v 12.006591 0.023404 -0.033360
v 12.006591 0.023404 -6.033360
v 9.002286 0.023404 -0.033360
v 9.002286 0.023404 -6.033360
v 2.993678 0.023404 -6.033360
v 12.006591 0.023404 -3.029056
v 8.937511 0.023403 -2.944069
v 2.993678 0.023404 -3.029056
v 12.006591 0.023404 5.966640
v 9.002286 0.023404 5.966640
v 12.006591 0.023404 8.970943
v 9.002286 0.023404 8.970943
v 12.006591 0.023404 2.962336
v 9.002286 0.023404 2.962336
v 12.006591 1.023404 8.970943
v 12.006591 1.023404 5.966640
v 9.002286 1.023404 5.966640
v 9.002286 1.023404 8.970943
v 12.006591 2.023404 5.966640
v 9.002286 2.023404 5.966640
v 12.006591 2.023404 2.962336
v 9.002286 2.023404 2.962336
v 9.002286 3.023404 -0.033360
v 12.006591 3.023404 -0.033360
v 9.002286 3.023404 2.962336
v 12.006591 3.023404 2.962336
v 9.002286 4.023404 -0.033360
v 12.006591 4.023404 -0.033360
v 12.006591 4.023404 -3.029056
v 9.002286 4.023404 -3.029056
v 12.006591 5.023404 -3.029056
v 12.006591 5.023404 -6.033360
v 9.002286 5.023404 -6.033360
v 9.002286 5.023404 -3.029056
v -0.002018 5.023404 -3.029056
v -0.002018 5.023404 -6.033360
v -2.997713 5.023404 -6.033360
v -2.997713 5.023404 -3.029056
v 8.937511 4.023402 -2.944069
v 9.002286 4.023404 -6.033360
v 12.006591 4.023404 -3.029056
v 12.006591 4.023404 -6.033360
v 0.909579 4.023404 -3.816556
v -2.997713 4.023404 -3.029056
v -2.997713 4.023404 -6.033360
v 0.909579 4.023404 -5.245859
v 2.035868 4.023404 -3.816556
v 2.893214 5.023404 -3.029056
v 2.035868 4.023404 -5.245859
v 2.893214 5.023404 -6.033360
v -0.002018 4.023404 -6.033360
v -0.002018 4.023404 -3.029056
v 2.893214 4.023404 -6.033360
v 2.893214 4.023404 -3.029056
v 0.909579 0.966270 -5.318043
v 0.909579 0.965704 -3.816556
v 2.035868 0.965704 -5.245859
v 2.035868 0.965704 -3.816556
v 5.947751 3.284370 -3.029056
v 5.947751 4.284370 -3.029056
v 5.947751 3.284370 -6.033360
v 5.947751 4.284370 -6.033360
vt 0.3744 0.3575
vt 0.3671 0.3615
vt 0.3638 0.3617
vt 0.3901 0.3547
vt 0.4010 0.3363
vt 0.4012 0.3587
vt 0.4941 0.3465
vt 0.4780 0.3615
vt 0.4767 0.3389
vt 0.5217 0.3052
vt 0.5136 0.3568
vt 0.7612 0.1640
vt 0.6488 0.1847
vt 0.6345 0.1614
vt 0.5520 0.3194
vt 0.5669 0.2991
vt 0.5774 0.3016
vt 0.7480 0.1872
vt 0.6274 0.2922
vt 0.5710 0.2667
vt 0.9060 0.2829
vt 0.5405 0.3005
vt 0.5617 0.2842
vt 0.5529 0.3092
vt 0.5404 0.3359
vt 0.5252 0.3327
vt 0.5660 0.3416
vt 0.4866 0.3623
vt 0.4705 0.3752
vt 0.4423 0.3566
vt 0.5056 0.3580
vt 0.4028 0.3555
vt 0.4062 0.3594
vt 0.4052 0.3611
vt 0.4014 0.3539
vt 0.4081 0.3648
vt 0.4085 0.3587
vt 0.4066 0.3552
vt 0.4075 0.3540
vt 0.3760 0.3584
vt 0.3705 0.3657
vt 0.3693 0.3671
vt 0.3776 0.3623
vt 0.3768 0.3620
vt 0.3878 0.3606
vt 0.3886 0.3593
vt 0.4164 0.3448
vt 0.4067 0.3408
vt 0.4268 0.3534
vt 0.3366 0.3596
vt 0.3642 0.3848
vt 0.3814 0.3590
vt 0.3843 0.3562
vt 0.3874 0.3583
vt 0.3882 0.3589
vt 0.3687 0.3448
vt 0.3797 0.3656
vt 0.3973 0.3599
vt 0.3976 0.3604
vt 0.3973 0.3612
vt 0.3977 0.3593
vt 0.3804 0.3576
vt 0.3851 0.3583
vt 0.3844 0.3576
vt 0.3822 0.3506
vt 0.3894 0.3493
vt 0.7692 0.2998
vt 0.5439 0.3556
vt 0.4903 0.3733
vn 0.0000 0.0000 1.0000
vn 0.7013 0.7129 0.0000
vn -1.0000 0.0000 0.0000
vn 1.0000 0.0000 0.0000
vn 0.0000 1.0000 0.0000
vn 0.0000 0.0000 -1.0000
vn -0.9999 0.0162 0.0000
vn 0.0276 0.0829 0.9962
vn -0.9998 0.0000 -0.0210
vn 0.0640 0.0236 -0.9977
vn -0.0241 0.0180 -0.9995
vn -0.2352 0.9720 0.0000
vn -0.2352 -0.9720 0.0000
vn 0.0000 -1.0000 0.0000
vn -0.7187 0.6954 0.0001
vn 0.0000 0.6413 0.7673
vn 0.0188 0.6304 -0.7761
vn 0.2398 -0.9708 0.0050
vn -0.0284 0.0000 0.9996
vn 0.2352 0.9720 0.0000
vn -0.9998 0.0000 0.0222
vn -0.7188 0.6952 0.0003
vn 0.0479 0.6687 -0.7420
vn 0.2352 -0.9720 0.0000
vn -0.0208 0.0860 0.9961
s off
f 56/1/1 42/2/1 48/3/1
f 61/4/2 12/5/2 9/6/2
f 5/7/1 31/8/1 7/9/1
f 18/10/3 27/11/3 7/9/3
f 15/12/1 22/13/1 16/14/1
f 17/15/4 23/16/4 13/17/4
f 19/18/5 21/19/5 22/13/5
f 16/14/3 21/19/3 14/20/3
f 13/21/4 19/18/4 15/12/4
f 23/16/5 26/22/5 24/23/5
f 13/17/1 24/23/1 14/20/1
f 18/10/6 25/24/6 17/15/6
f 14/20/3 26/22/3 18/10/3
f 30/25/5 27/11/5 29/26/5
f 5/27/4 30/25/4 17/15/4
f 17/15/1 29/26/1 18/10/1
f 32/28/5 34/29/5 31/8/5
f 11/30/7 31/8/7 34/29/7
f 10/31/4 32/28/4 5/7/4
f 35/32/5 37/33/5 38/34/5
f 45/35/8 38/34/8 43/36/8
f 44/37/6 36/38/6 46/39/6
f 46/39/4 35/32/4 45/35/4
f 39/40/5 41/41/5 42/2/5
f 49/42/6 40/43/6 55/44/6
f 55/44/6 54/45/6 57/46/6
f 48/3/3 41/41/3 49/42/3
f 6/47/4 45/35/4 10/48/4
f 8/49/6 46/39/6 6/47/6
f 8/49/9 43/36/9 44/37/9
f 4/50/3 49/42/3 2/51/3
f 50/52/10 61/4/10 59/53/10
f 52/54/1 56/1/1 58/55/1
f 3/56/4 55/44/4 56/1/4
f 2/51/11 55/44/11 1/57/11
f 3/56/1 48/3/1 4/50/1
f 64/58/12 37/33/12 66/59/12
f 39/40/5 54/45/5 40/43/5
f 64/58/1 58/55/1 63/60/1
f 58/55/13 65/61/13 63/60/13
f 57/46/6 66/59/6 65/61/6
f 47/62/14 55/44/14 50/52/14
f 50/52/14 57/46/14 53/63/14
f 47/62/14 58/55/14 56/1/14
f 53/63/14 58/55/14 51/64/14
f 60/65/15 1/57/15 3/56/15
f 47/62/1 62/66/1 51/64/1
f 50/52/3 60/65/3 47/62/3
f 51/64/4 61/4/4 53/63/4
f 62/66/16 3/56/16 12/5/16
f 59/53/17 9/6/17 1/57/17
f 44/37/6 66/59/6 37/33/6
f 63/60/18 44/37/18 43/36/18
f 43/36/19 64/58/19 63/60/19
f 52/54/20 66/59/20 54/45/20
f 56/1/1 39/40/1 42/2/1
f 61/4/2 62/66/2 12/5/2
f 5/7/1 32/28/1 31/8/1
f 18/10/3 29/26/3 27/11/3
f 15/12/1 19/18/1 22/13/1
f 17/15/4 25/24/4 23/16/4
f 19/18/5 20/67/5 21/19/5
f 16/14/3 22/13/3 21/19/3
f 13/21/4 20/67/4 19/18/4
f 23/16/5 25/24/5 26/22/5
f 13/17/1 23/16/1 24/23/1
f 18/10/6 26/22/6 25/24/6
f 14/20/3 24/23/3 26/22/3
f 30/25/5 28/68/5 27/11/5
f 5/27/4 28/68/4 30/25/4
f 17/15/1 30/25/1 29/26/1
f 32/28/5 33/69/5 34/29/5
f 11/30/21 7/9/21 31/8/21
f 10/31/4 33/69/4 32/28/4
f 35/32/5 36/38/5 37/33/5
f 45/35/1 35/32/1 38/34/1
f 44/37/6 37/33/6 36/38/6
f 46/39/4 36/38/4 35/32/4
f 39/40/5 40/43/5 41/41/5
f 49/42/6 41/41/6 40/43/6
f 55/44/6 40/43/6 54/45/6
f 48/3/3 42/2/3 41/41/3
f 6/47/4 46/39/4 45/35/4
f 8/49/6 44/37/6 46/39/6
f 8/49/9 11/30/9 43/36/9
f 4/50/3 48/3/3 49/42/3
f 50/52/6 53/63/6 61/4/6
f 52/54/1 39/40/1 56/1/1
f 3/56/4 1/57/4 55/44/4
f 2/51/6 49/42/6 55/44/6
f 3/56/1 56/1/1 48/3/1
f 64/58/12 38/34/12 37/33/12
f 39/40/5 52/54/5 54/45/5
f 64/58/1 52/54/1 58/55/1
f 58/55/13 57/46/13 65/61/13
f 57/46/6 54/45/6 66/59/6
f 47/62/14 56/1/14 55/44/14
f 50/52/14 55/44/14 57/46/14
f 47/62/14 51/64/14 58/55/14
f 53/63/14 57/46/14 58/55/14
f 60/65/22 59/53/22 1/57/22
f 47/62/1 60/65/1 62/66/1
f 50/52/3 59/53/3 60/65/3
f 51/64/4 62/66/4 61/4/4
f 62/66/16 60/65/16 3/56/16
f 59/53/23 61/4/23 9/6/23
f 44/37/6 65/61/6 66/59/6
f 63/60/24 65/61/24 44/37/24
f 43/36/25 38/34/25 64/58/25
f 52/54/20 64/58/20 66/59/20
