# Blender v2.78 (sub 0) OBJ File: 'large_terrain.blend'
# www.blender.org
o Plane.001_Plane.006
v 4949.916992 0.000000 -4949.916992
v -4949.916992 0.000000 -4949.916992
v 4949.916992 0.000000 4949.916992
v -4949.916992 0.000000 4949.916992
v 1001.792603 0.000000 -92.360977
v 998.755310 0.000000 -57.136478
v 988.725464 -0.000000 -31.908899
v 983.330811 0.000000 -21.911976
v 979.589294 0.000000 13.312517
v 971.246948 0.000000 48.537025
v 970.427246 0.000000 83.761528
v 961.604248 -0.000000 118.986008
v 970.541382 -0.000000 154.210526
v 963.712463 -0.000000 189.435028
v 953.500977 0.000000 208.078827
v 947.007263 0.000000 224.659515
v 943.104187 0.000000 259.884033
v 930.128967 0.000000 295.108521
v 918.276489 0.000000 326.867218
v 917.100830 -0.000000 330.333008
v 907.403992 0.000000 365.557495
v 902.782593 -0.000000 400.782013
v 902.463928 0.000000 436.006531
v 900.735535 0.000000 471.231018
v 895.739258 0.000000 506.455566
v 885.562073 0.000000 541.680054
v 883.051880 0.000000 546.456543
v 861.221619 -0.000000 576.904541
v 847.827393 0.000000 592.580261
v 829.701538 -0.000000 612.129028
v 812.602905 -0.000000 635.474243
v 804.148193 0.000000 647.353516
v 787.481995 0.000000 682.577942
v 777.378357 0.000000 713.035461
v 775.057068 -0.000000 717.802551
v 752.680786 -0.000000 753.026917
v 742.153870 -0.000000 763.955750
v 706.929382 -0.000000 785.582581
v 699.750305 -0.000000 788.251465
v 671.704895 -0.000000 795.469482
v 636.480408 0.000000 800.106812
v 601.255859 -0.000000 803.122253
v 566.031311 -0.000000 807.001770
v 530.806885 0.000000 813.767029
v 502.052246 -0.000000 823.476013
v 495.582367 -0.000000 825.505737
v 460.357880 -0.000000 840.983826
v 425.133331 0.000000 857.200439
v 421.731750 0.000000 858.700439
v 389.908844 0.000000 872.947998
v 354.684387 0.000000 887.410034
v 337.516876 0.000000 893.924988
v 319.459900 0.000000 900.170227
v 284.235413 -0.000000 910.572388
v 249.010941 -0.000000 918.841675
v 213.786423 -0.000000 925.260315
v 184.868927 0.000000 929.149536
v 178.561905 -0.000001 929.900696
v 143.337387 0.000000 932.871155
v 108.112915 -0.000001 934.308167
v 72.888435 -0.000000 934.104675
v 37.663940 0.000001 932.141235
v -151.927109 0.000000 893.924988
v -173.683060 -0.000000 888.298279
v -208.907562 -0.000000 879.419922
v -244.132065 0.000000 871.047607
v 10.049622 -0.000000 929.149536
v 2.439441 0.000000 928.315247
v -32.785076 -0.000000 922.648499
v -68.009552 -0.000001 915.281860
v -103.234070 -0.000000 906.618225
v -138.458572 0.000000 897.416260
v -279.356537 -0.000001 864.210022
v -314.581055 -0.000001 859.820984
v -324.998474 0.000000 858.700439
v -349.805573 -0.000000 855.891846
v -385.030060 0.000000 850.930542
v -420.254578 0.000000 843.693359
v -455.479095 -0.000000 833.027771
v -490.703552 -0.000000 818.478088
v -478.625488 -0.000000 823.476013
v -525.928040 0.000000 800.507080
v -688.945496 0.000001 13.312517
v -702.050598 0.000000 -17.121731
v -676.874756 -0.000000 48.537025
v -737.275085 -0.000000 -41.118664
v -705.141602 -0.000000 -21.911976
v -772.499634 0.000000 -31.951952
v -807.724121 0.000000 -22.866440
v -662.623352 -0.000000 118.986008
v -666.826111 -0.000000 89.503525
v -657.168762 -0.000001 154.210526
v -651.409302 -0.000000 189.434998
v -668.095886 0.000000 83.761528
v -649.474670 0.000000 224.659546
v -646.928833 0.000000 259.884033
v -666.826111 0.000000 291.690277
v -682.421387 0.000000 295.108521
v -702.050598 0.000000 298.675720
v -737.275085 0.000000 303.622284
v -772.499634 -0.000000 295.993652
v -775.829956 0.000000 295.108521
v -807.724121 0.000000 284.464508
v -737.275085 0.000000 607.858398
v -734.322388 0.000000 612.129028
v -761.706421 -0.000000 576.904541
v -772.499634 0.000000 562.839111
v -807.724121 0.000000 507.442657
v -788.387573 -0.000000 541.680054
v -598.205627 -0.000000 753.026917
v -631.601562 -0.000000 726.087036
v -640.788696 -0.000001 717.802551
v -666.826111 -0.000000 691.863647
v -676.387512 0.000000 682.577942
v -702.050598 -0.000000 652.516846
v -706.312805 0.000000 647.353516
v -561.152527 0.000000 778.797546
v -545.600098 0.000000 788.251465
v -596.377075 0.000000 754.507019
v -810.250854 0.000000 -21.911976
v -842.948547 0.000000 -2.206411
v -865.649109 0.000000 13.312517
v -878.173096 0.000000 22.628759
v -900.417358 0.000000 13.312517
v -913.397522 -0.000000 6.214555
v -941.183228 -0.000000 -21.911976
v -948.622070 0.000000 -32.429268
v -955.874756 -0.000000 -57.136471
v -963.459473 0.000000 -92.360977
v -842.571899 -0.000000 295.108521
v -842.948547 -0.000000 295.269867
v -878.173096 -0.000000 320.636475
v -882.771790 -0.000000 330.333008
v -842.948547 0.000000 446.185272
v -829.405334 0.000000 471.231018
v -874.295166 -0.000000 365.557556
v -878.173096 -0.000000 350.456238
v -867.906311 0.000000 400.782013
v -848.497803 0.000000 436.006531
v -808.306274 0.000000 506.455566
v 939.723877 -0.000000 -198.034470
v 918.276489 0.000000 -211.096741
v 883.051880 -0.000000 -224.423187
v 953.500977 0.000000 -188.608185
v 974.129089 0.000000 -162.809967
v 983.201477 0.000000 -127.585472
v 988.725464 -0.000000 -118.837257
v 837.776550 -0.000000 -374.156982
v 831.885193 0.000000 -338.932465
v 832.478088 -0.000000 -303.707947
v 842.360657 0.000000 -268.483490
v 847.827393 0.000000 -255.511063
v 868.914612 -0.000000 -233.258957
v -921.930786 0.000000 -374.156982
v -933.166016 -0.000000 -338.932465
v -943.355530 0.000000 -303.707947
v -948.622070 -0.000000 -280.275909
v -951.525818 -0.000000 -268.483490
v -959.746094 0.000000 -233.258957
v -963.794006 0.000000 -198.034485
v -965.625183 -0.000000 -162.809967
v -965.181152 0.000000 -127.585472
v 868.583801 0.000000 -479.830505
v 881.587524 0.000000 -515.054932
v 857.320679 -0.000000 -444.605988
v 847.827271 0.000000 -413.762085
v 846.640625 0.000000 -409.381470
v -877.086060 -0.000000 -479.830475
v -864.620300 0.000000 -515.054932
v -878.173096 -0.000000 -476.766541
v -893.177551 0.000000 -444.606018
v -908.317749 -0.000000 -409.381470
v -913.397522 0.000000 -396.660797
v 898.727478 -0.000000 -655.952942
v 899.548157 0.000000 -620.728516
v 900.590332 0.000000 -585.503967
v 892.150146 0.000000 -550.279480
v 883.051880 -0.000000 -519.782043
v -799.128296 0.000000 -655.952942
v -807.724121 0.000000 -638.059692
v -817.979126 0.000000 -620.728516
v -836.656616 -0.000000 -585.504028
v -842.948547 -0.000000 -570.299866
v -851.012268 -0.000000 -550.279480
v 883.051880 0.000000 -740.431152
v 889.122986 0.000000 -726.401978
v 893.486206 -0.000000 -691.177551
v 857.895508 0.000000 -796.851013
v 873.465820 0.000000 -761.626465
v -734.790100 -0.000000 -796.851013
v -737.275085 0.000000 -790.003235
v -751.594421 0.000000 -761.626465
v -767.766907 0.000001 -726.401978
v -772.499634 -0.000000 -714.872620
v -782.693909 -0.000000 -691.177551
v 847.827393 0.000000 -810.836121
v 812.602905 -0.000000 -847.013916
v 827.982056 -0.000000 -832.075439
v 777.378357 -0.000000 -873.855408
v 785.986084 -0.000000 -867.299988
v 742.153870 -0.000001 -896.995361
v 730.859009 -0.000000 -902.524414
v 706.929382 -0.000001 -912.565735
v 671.704895 -0.000000 -917.418823
v 636.480408 -0.000001 -910.632751
v 618.438660 0.000000 -902.524414
v 601.255859 -0.000000 -894.314575
v 566.031311 -0.000000 -882.234131
v 530.806824 -0.000000 -881.801331
v 495.582367 0.000000 -889.654236
v 460.357880 -0.000001 -899.204224
v 425.133331 0.000000 -908.884216
v 447.763611 -0.000000 -902.524414
v 389.908844 0.000000 -918.633972
v 354.684387 0.000000 -921.404297
v 319.459900 -0.000001 -924.365295
v 284.235443 0.000000 -932.100220
v 256.417450 0.000000 -937.748962
v -674.866760 0.000000 -937.748962
v -694.700012 0.000001 -902.524414
v -702.050598 -0.000000 -887.224182
v -710.696777 -0.000000 -867.299988
v -722.756409 0.000000 -832.075439
v 249.010910 0.000000 -939.857910
v 213.786392 -0.000000 -957.463074
v 180.529846 -0.000000 -972.973511
v 178.561874 0.000000 -973.906555
v 143.337387 -0.000000 -991.072083
v 108.112877 0.000000 -1007.004456
v 100.670998 0.000000 -1008.197876
v 72.888359 0.000000 -1014.166382
v 37.663879 0.000000 -1021.095642
v 2.439384 0.000001 -1021.221252
v -32.785114 -0.000000 -1021.333008
v -68.009628 -0.000000 -1021.298523
v -103.234108 0.000000 -1021.287537
v -138.458603 0.000000 -1030.420532
v -173.683105 0.000000 -1037.815918
v -184.513016 0.000000 -1043.422485
v -208.907593 0.000000 -1053.954224
v -244.132095 0.000000 -1065.216309
v -279.356598 0.000000 -1071.359131
v -314.581085 0.000000 -1076.265381
v -349.805573 0.000000 -1076.726929
v -385.030090 0.000000 -1076.482666
v -420.254578 0.000000 -1073.692017
v -455.479095 -0.000000 -1070.479126
v -490.703552 0.000000 -1062.384155
v -525.928040 0.000000 -1054.070068
v -547.811523 -0.000000 -1043.422485
v -561.152527 -0.000000 -1036.570312
v -596.377075 0.000000 -1017.219727
v -605.993652 0.000000 -1008.197876
v -631.601562 0.000000 -986.734741
v -645.689636 0.000000 -972.973511
v -666.826111 -0.000000 -949.003479
vt 0.9999 0.0001
vt 0.5389 0.3913
vt 0.5353 0.3913
vt 0.5104 0.5916
vt 0.5389 0.5859
vt 0.5069 0.5924
vt 0.5975 0.4836
vt 0.5973 0.4800
vt 0.5969 0.4764
vt 0.4001 0.4880
vt 0.3988 0.4907
vt 0.4016 0.4836
vt 0.4007 0.4871
vt 0.4090 0.4409
vt 0.5961 0.4729
vt 0.5958 0.4717
vt 0.5953 0.4693
vt 0.4037 0.4810
vt 0.4099 0.4444
vt 0.4051 0.4800
vt 0.4134 0.4551
vt 0.5942 0.4658
vt 0.5931 0.4622
vt 0.4073 0.4787
vt 0.4145 0.4587
vt 0.4122 0.4764
vt 0.4108 0.4773
vt 0.4149 0.4729
vt 0.4144 0.4742
vt 0.4160 0.4658
vt 0.4159 0.4693
vt 0.4154 0.4622
vt 0.4144 0.4582
vt 0.4110 0.4480
vt 0.4123 0.4515
vt 0.5922 0.4599
vt 0.5917 0.4587
vt 0.4108 0.4475
vt 0.5859 0.4444
vt 0.5902 0.4551
vt 0.5887 0.4519
vt 0.5886 0.4515
vt 0.5873 0.4480
vt 0.4092 0.4373
vt 0.4092 0.4338
vt 0.4102 0.4266
vt 0.4098 0.4302
vt 0.4134 0.4195
vt 0.4118 0.4231
vt 0.0001 0.0001
vt 0.4428 0.4109
vt 0.4393 0.4097
vt 0.4464 0.4109
vt 0.4500 0.4102
vt 0.4571 0.4082
vt 0.4548 0.4089
vt 0.4357 0.4080
vt 0.4535 0.4092
vt 0.4375 0.4089
vt 0.4606 0.4072
vt 0.4677 0.4066
vt 0.4642 0.4069
vt 0.4713 0.4059
vt 0.4749 0.4051
vt 0.4741 0.4053
vt 0.4784 0.4033
vt 0.4322 0.4073
vt 0.4820 0.4016
vt 0.4818 0.4017
vt 0.4855 0.3999
vt 0.4926 0.3976
vt 0.4898 0.3982
vt 0.4891 0.3983
vt 0.4962 0.3969
vt 0.5851 0.4424
vt 0.5845 0.4409
vt 0.4108 0.4252
vt 0.5718 0.4124
vt 0.5826 0.4373
vt 0.5816 0.4356
vt 0.5807 0.4338
vt 0.5790 0.4302
vt 0.5780 0.4278
vt 0.5775 0.4266
vt 0.4144 0.4181
vt 0.5759 0.4231
vt 0.5745 0.4202
vt 0.5742 0.4195
vt 0.4164 0.4160
vt 0.4179 0.4145
vt 0.5730 0.4160
vt 0.4206 0.4124
vt 0.4215 0.4117
vt 0.5709 0.4104
vt 0.4250 0.4094
vt 0.4262 0.4089
vt 0.5702 0.4089
vt 0.5682 0.4053
vt 0.4286 0.4078
vt 0.5673 0.4042
vt 0.5652 0.4017
vt 0.5247 0.3924
vt 0.4998 0.3969
vt 0.5638 0.4003
vt 0.5612 0.3982
vt 0.5602 0.3973
vt 0.5033 0.3969
vt 0.5211 0.3936
vt 0.5104 0.3969
vt 0.5069 0.3969
vt 0.5140 0.3959
vt 0.5186 0.3946
vt 0.5175 0.3952
vt 0.5567 0.3953
vt 0.5553 0.3946
vt 0.5531 0.3935
vt 0.5496 0.3927
vt 0.5282 0.3918
vt 0.5318 0.3913
vt 0.5460 0.3919
vt 0.5424 0.3916
vt 0.0001 0.9999
vt 0.4001 0.4968
vt 0.4007 0.4978
vt 0.4011 0.5013
vt 0.3991 0.4942
vt 0.5975 0.4871
vt 0.9999 0.9999
vt 0.4020 0.5156
vt 0.4019 0.5049
vt 0.4020 0.5085
vt 0.5973 0.4907
vt 0.5965 0.4942
vt 0.4029 0.5120
vt 0.4027 0.5191
vt 0.4037 0.5210
vt 0.4048 0.5262
vt 0.4044 0.5227
vt 0.5958 0.4967
vt 0.5892 0.5334
vt 0.5951 0.4978
vt 0.4095 0.5511
vt 0.4061 0.5298
vt 0.4073 0.5330
vt 0.4089 0.5440
vt 0.4090 0.5476
vt 0.5922 0.5006
vt 0.5887 0.5324
vt 0.5909 0.5013
vt 0.4074 0.5334
vt 0.4084 0.5369
vt 0.4088 0.5405
vt 0.5887 0.5023
vt 0.5851 0.5298
vt 0.5851 0.4998
vt 0.5675 0.5085
vt 0.5684 0.5049
vt 0.5816 0.4977
vt 0.5818 0.4978
vt 0.5712 0.4978
vt 0.5745 0.4958
vt 0.5780 0.4968
vt 0.5696 0.5013
vt 0.5874 0.5013
vt 0.5709 0.4983
vt 0.5669 0.5120
vt 0.5816 0.5287
vt 0.4106 0.5547
vt 0.5673 0.5090
vt 0.5664 0.5156
vt 0.5656 0.5227
vt 0.5658 0.5191
vt 0.5780 0.5299
vt 0.5673 0.5295
vt 0.5653 0.5262
vt 0.5689 0.5298
vt 0.5709 0.5302
vt 0.5745 0.5307
vt 0.5784 0.5298
vt 0.4108 0.5552
vt 0.4217 0.5725
vt 0.4130 0.5583
vt 0.4144 0.5598
vt 0.4162 0.5618
vt 0.4179 0.5642
vt 0.4188 0.5654
vt 0.4205 0.5689
vt 0.4215 0.5720
vt 0.5851 0.5298
vt 0.4240 0.5760
vt 0.4250 0.5772
vt 0.5877 0.5405
vt 0.5883 0.5369
vt 0.5887 0.5354
vt 0.4926 0.5943
vt 0.4286 0.5793
vt 0.5851 0.5451
vt 0.5857 0.5440
vt 0.5816 0.5512
vt 0.5816 0.5511
vt 0.5796 0.5547
vt 0.5838 0.5476
vt 0.4293 0.5796
vt 0.4322 0.5803
vt 0.4659 0.5903
vt 0.4357 0.5808
vt 0.4393 0.5811
vt 0.4535 0.5849
vt 0.4428 0.5815
vt 0.4464 0.5822
vt 0.4493 0.5832
vt 0.4500 0.5834
vt 0.4571 0.5866
vt 0.4574 0.5867
vt 0.5780 0.5568
vt 0.5742 0.5618
vt 0.5745 0.5614
vt 0.5769 0.5583
vt 0.4606 0.5882
vt 0.5713 0.5654
vt 0.4642 0.5896
vt 0.5709 0.5659
vt 0.5647 0.5725
vt 0.5673 0.5699
vt 0.5683 0.5689
vt 0.4677 0.5909
vt 0.4713 0.5920
vt 0.5602 0.5762
vt 0.5604 0.5760
vt 0.5638 0.5733
vt 0.4749 0.5928
vt 0.4784 0.5934
vt 0.5531 0.5808
vt 0.5551 0.5796
vt 0.5567 0.5787
vt 0.4813 0.5938
vt 0.4820 0.5939
vt 0.5496 0.5827
vt 0.4855 0.5942
vt 0.4891 0.5944
vt 0.5483 0.5832
vt 0.5460 0.5841
vt 0.4962 0.5941
vt 0.5424 0.5852
vt 0.4990 0.5938
vt 0.4998 0.5938
vt 0.5353 0.5864
vt 0.5282 0.5873
vt 0.5318 0.5868
vt 0.5247 0.5880
vt 0.5328 0.5867
vt 0.5175 0.5897
vt 0.5033 0.5932
vt 0.5211 0.5888
vt 0.5153 0.5903
vt 0.5140 0.5906
vn -0.0000 1.0000 -0.0000
s off
f 2/1/1 245/2/1 244/3/1
f 71/4/1 77/5/1 70/6/1
f 2/1/1 161/7/1 160/8/1
f 2/1/1 160/8/1 159/9/1
f 147/10/1 5/11/1 145/12/1
f 145/12/1 146/13/1 147/10/1
f 145/12/1 5/11/1 176/14/1
f 2/1/1 159/9/1 158/15/1
f 158/15/1 157/16/1 156/17/1
f 2/1/1 158/15/1 156/17/1
f 144/18/1 145/12/1 177/19/1
f 141/20/1 144/18/1 165/21/1
f 2/1/1 156/17/1 155/22/1
f 2/1/1 155/22/1 154/23/1
f 142/24/1 141/20/1 167/25/1
f 153/26/1 143/27/1 151/28/1
f 151/28/1 152/29/1 153/26/1
f 149/30/1 150/31/1 142/24/1
f 167/25/1 148/32/1 142/24/1
f 165/21/1 166/33/1 141/20/1
f 164/34/1 163/35/1 144/18/1
f 163/35/1 165/21/1 144/18/1
f 148/32/1 149/30/1 142/24/1
f 151/28/1 143/27/1 150/31/1
f 2/1/1 154/23/1 173/36/1
f 2/1/1 173/36/1 172/37/1
f 143/27/1 142/24/1 150/31/1
f 166/33/1 167/25/1 141/20/1
f 178/38/1 164/34/1 144/18/1
f 2/1/1 172/37/1 184/39/1
f 171/40/1 170/41/1 168/42/1
f 171/40/1 168/42/1 169/43/1
f 178/38/1 144/18/1 177/19/1
f 177/19/1 145/12/1 176/14/1
f 172/37/1 171/40/1 169/43/1
f 172/37/1 169/43/1 184/39/1
f 176/14/1 5/11/1 175/44/1
f 174/45/1 175/44/1 5/11/1
f 186/46/1 187/47/1 174/45/1
f 188/48/1 189/49/1 1/50/1
f 208/51/1 207/52/1 209/53/1
f 210/54/1 209/53/1 207/52/1
f 212/55/1 213/56/1 205/57/1
f 211/58/1 206/59/1 205/57/1
f 207/52/1 206/59/1 210/54/1
f 210/54/1 206/59/1 211/58/1
f 214/60/1 212/55/1 205/57/1
f 216/61/1 215/62/1 217/63/1
f 224/64/1 218/65/1 225/66/1
f 217/63/1 215/62/1 225/66/1
f 213/56/1 211/58/1 205/57/1
f 214/60/1 205/57/1 204/67/1
f 218/65/1 217/63/1 225/66/1
f 227/68/1 226/69/1 214/60/1
f 225/66/1 215/62/1 226/69/1
f 215/62/1 214/60/1 226/69/1
f 228/70/1 227/68/1 214/60/1
f 231/71/1 230/72/1 229/73/1
f 228/70/1 214/60/1 204/67/1
f 229/73/1 228/70/1 204/67/1
f 229/73/1 204/67/1 1/50/1
f 231/71/1 229/73/1 1/50/1
f 232/74/1 231/71/1 1/50/1
f 174/45/1 5/11/1 1/50/1
f 2/1/1 184/39/1 183/75/1
f 2/1/1 183/75/1 182/76/1
f 186/46/1 174/45/1 1/50/1
f 185/77/1 186/46/1 1/50/1
f 2/1/1 182/76/1 222/78/1
f 181/79/1 180/80/1 179/81/1
f 179/81/1 195/82/1 181/79/1
f 195/82/1 194/83/1 181/79/1
f 182/76/1 193/84/1 222/78/1
f 189/49/1 185/77/1 1/50/1
f 196/85/1 188/48/1 1/50/1
f 181/79/1 194/83/1 193/84/1
f 192/86/1 191/87/1 190/88/1
f 181/79/1 193/84/1 182/76/1
f 198/89/1 196/85/1 1/50/1
f 197/90/1 198/89/1 1/50/1
f 193/84/1 192/86/1 222/78/1
f 192/86/1 190/88/1 223/91/1
f 200/92/1 197/90/1 1/50/1
f 199/93/1 200/92/1 1/50/1
f 192/86/1 223/91/1 222/78/1
f 2/1/1 222/78/1 221/94/1
f 199/93/1 1/50/1 201/95/1
f 201/95/1 1/50/1 202/96/1
f 2/1/1 221/94/1 220/97/1
f 2/1/1 220/97/1 219/98/1
f 202/96/1 1/50/1 203/99/1
f 203/99/1 1/50/1 204/67/1
f 2/1/1 219/98/1 256/100/1
f 2/1/1 256/100/1 255/101/1
f 232/74/1 1/50/1 241/102/1
f 233/103/1 232/74/1 241/102/1
f 2/1/1 255/101/1 254/104/1
f 254/104/1 253/105/1 252/106/1
f 2/1/1 254/104/1 252/106/1
f 234/107/1 233/103/1 240/108/1
f 236/109/1 235/110/1 237/111/1
f 239/112/1 238/113/1 237/111/1
f 237/111/1 235/110/1 240/108/1
f 2/1/1 252/106/1 251/114/1
f 2/1/1 251/114/1 250/115/1
f 235/110/1 234/107/1 240/108/1
f 240/108/1 239/112/1 237/111/1
f 240/108/1 233/103/1 241/102/1
f 2/1/1 250/115/1 249/116/1
f 2/1/1 249/116/1 248/117/1
f 241/102/1 1/50/1 242/118/1
f 242/118/1 1/50/1 243/119/1
f 2/1/1 248/117/1 247/120/1
f 2/1/1 247/120/1 246/121/1
f 243/119/1 1/50/1 2/1/1
f 244/3/1 243/119/1 2/1/1
f 2/1/1 246/121/1 245/2/1
f 1/50/1 5/11/1 3/122/1
f 7/123/1 8/124/1 9/125/1
f 5/11/1 6/126/1 3/122/1
f 161/7/1 2/1/1 162/127/1
f 162/127/1 2/1/1 4/128/1
f 3/122/1 6/126/1 13/129/1
f 9/125/1 10/130/1 11/131/1
f 6/126/1 11/131/1 13/129/1
f 129/132/1 162/127/1 4/128/1
f 128/133/1 129/132/1 4/128/1
f 7/123/1 9/125/1 6/126/1
f 11/131/1 12/134/1 13/129/1
f 14/135/1 15/136/1 17/137/1
f 9/125/1 11/131/1 6/126/1
f 15/136/1 16/138/1 17/137/1
f 3/122/1 13/129/1 14/135/1
f 127/139/1 128/133/1 133/140/1
f 126/141/1 127/139/1 133/140/1
f 3/122/1 14/135/1 25/142/1
f 18/143/1 19/144/1 23/145/1
f 14/135/1 17/137/1 24/146/1
f 125/147/1 126/141/1 132/148/1
f 124/149/1 125/147/1 132/148/1
f 17/137/1 18/143/1 23/145/1
f 20/150/1 21/151/1 22/152/1
f 20/150/1 22/152/1 23/145/1
f 123/153/1 124/149/1 131/154/1
f 121/155/1 94/156/1 85/157/1
f 89/158/1 120/159/1 85/157/1
f 87/160/1 86/161/1 88/162/1
f 88/162/1 89/158/1 83/163/1
f 122/164/1 94/156/1 121/155/1
f 19/144/1 20/150/1 23/145/1
f 17/137/1 23/145/1 24/146/1
f 120/159/1 121/155/1 85/157/1
f 84/165/1 87/160/1 88/162/1
f 85/157/1 83/163/1 89/158/1
f 122/164/1 123/153/1 90/166/1
f 90/166/1 123/153/1 103/167/1
f 83/163/1 84/165/1 88/162/1
f 14/135/1 24/146/1 25/142/1
f 3/122/1 25/142/1 26/168/1
f 122/164/1 91/169/1 94/156/1
f 92/170/1 90/166/1 103/167/1
f 95/171/1 93/172/1 101/173/1
f 97/174/1 96/175/1 98/176/1
f 99/177/1 98/176/1 95/171/1
f 101/173/1 100/178/1 95/171/1
f 103/167/1 102/179/1 93/172/1
f 102/179/1 101/173/1 93/172/1
f 98/176/1 96/175/1 95/171/1
f 93/172/1 92/170/1 103/167/1
f 3/122/1 26/168/1 27/180/1
f 3/122/1 27/180/1 35/181/1
f 99/177/1 95/171/1 100/178/1
f 91/169/1 122/164/1 90/166/1
f 27/180/1 28/182/1 35/181/1
f 29/183/1 30/184/1 31/185/1
f 31/185/1 32/186/1 33/187/1
f 31/185/1 33/187/1 34/188/1
f 28/182/1 29/183/1 34/188/1
f 130/189/1 103/167/1 123/153/1
f 131/154/1 130/189/1 123/153/1
f 29/183/1 31/185/1 34/188/1
f 28/182/1 34/188/1 35/181/1
f 132/148/1 131/154/1 124/149/1
f 132/148/1 126/141/1 133/140/1
f 3/122/1 35/181/1 36/190/1
f 3/122/1 36/190/1 37/191/1
f 133/140/1 128/133/1 4/128/1
f 138/192/1 136/193/1 137/194/1
f 137/194/1 133/140/1 138/192/1
f 4/128/1 3/122/1 61/195/1
f 3/122/1 37/191/1 38/196/1
f 138/192/1 133/140/1 4/128/1
f 134/197/1 139/198/1 4/128/1
f 108/199/1 140/200/1 109/201/1
f 135/202/1 134/197/1 4/128/1
f 3/122/1 38/196/1 39/203/1
f 3/122/1 39/203/1 40/204/1
f 139/198/1 138/192/1 4/128/1
f 109/201/1 140/200/1 135/202/1
f 109/201/1 135/202/1 4/128/1
f 3/122/1 40/204/1 52/205/1
f 41/206/1 42/207/1 47/208/1
f 43/209/1 44/210/1 45/211/1
f 45/211/1 46/212/1 47/208/1
f 48/213/1 49/214/1 41/206/1
f 45/211/1 47/208/1 42/207/1
f 42/207/1 43/209/1 45/211/1
f 107/215/1 109/201/1 4/128/1
f 105/216/1 104/217/1 106/218/1
f 106/218/1 107/215/1 4/128/1
f 40/204/1 41/206/1 50/219/1
f 47/208/1 48/213/1 41/206/1
f 41/206/1 49/214/1 50/219/1
f 105/216/1 106/218/1 4/128/1
f 116/220/1 105/216/1 4/128/1
f 40/204/1 50/219/1 51/221/1
f 40/204/1 51/221/1 52/205/1
f 115/222/1 116/220/1 4/128/1
f 112/223/1 113/224/1 114/225/1
f 114/225/1 115/222/1 4/128/1
f 3/122/1 52/205/1 53/226/1
f 3/122/1 53/226/1 54/227/1
f 112/223/1 114/225/1 4/128/1
f 119/228/1 110/229/1 4/128/1
f 111/230/1 112/223/1 4/128/1
f 3/122/1 54/227/1 55/231/1
f 3/122/1 55/231/1 56/232/1
f 110/229/1 111/230/1 4/128/1
f 82/233/1 118/234/1 117/235/1
f 117/235/1 119/228/1 4/128/1
f 3/122/1 56/232/1 57/236/1
f 3/122/1 57/236/1 58/237/1
f 82/233/1 117/235/1 4/128/1
f 80/238/1 82/233/1 4/128/1
f 3/122/1 58/237/1 59/239/1
f 3/122/1 59/239/1 60/240/1
f 81/241/1 80/238/1 4/128/1
f 79/242/1 81/241/1 4/128/1
f 3/122/1 60/240/1 61/195/1
f 4/128/1 61/195/1 62/243/1
f 78/244/1 79/242/1 4/128/1
f 77/5/1 78/244/1 4/128/1
f 4/128/1 62/243/1 67/245/1
f 4/128/1 67/245/1 68/246/1
f 76/247/1 77/5/1 71/4/1
f 73/248/1 74/249/1 66/250/1
f 75/251/1 76/247/1 64/252/1
f 4/128/1 68/246/1 69/253/1
f 4/128/1 69/253/1 70/6/1
f 74/249/1 65/254/1 66/250/1
f 65/254/1 74/249/1 75/251/1
f 63/255/1 64/252/1 76/247/1
f 71/4/1 72/256/1 76/247/1
f 4/128/1 70/6/1 77/5/1
f 65/254/1 75/251/1 64/252/1
f 72/256/1 63/255/1 76/247/1
