# Blender v2.80 (sub 75) OBJ File: 'book_stand.blend'
# www.blender.org
mtllib book_stand.mtl
o Cube
v 0.032087 0.123675 -0.032087
v 0.195858 0.000000 -0.195858
v 0.032087 0.123675 0.032087
v 0.195858 0.000000 0.195858
v -0.032087 0.123675 -0.032087
v -0.195858 0.000000 -0.195858
v -0.032087 0.123675 0.032087
v -0.195858 0.000000 0.195858
v 0.195858 0.056419 0.195858
v -0.195858 0.056419 0.195858
v 0.195858 0.056419 -0.195858
v -0.195858 0.056419 -0.195858
v 0.195858 0.056419 0.195858
v -0.195858 0.056419 0.195858
v 0.195858 0.056419 -0.195858
v -0.195858 0.056419 -0.195858
v 0.045506 1.053128 0.045506
v -0.045506 1.053128 0.045506
v 0.045506 1.108755 -0.045506
v -0.045506 1.108755 -0.045506
v 0.032087 0.910277 0.032087
v -0.032087 0.910277 0.032087
v 0.032087 0.949501 -0.032087
v -0.032087 0.949501 -0.032087
v 0.234511 0.990781 0.147515
v -0.234511 0.990781 0.147515
v 0.234511 1.171103 -0.147515
v -0.234511 1.171103 -0.147515
v 0.194622 1.030365 0.148350
v -0.194622 1.030365 0.148350
v 0.194622 1.189899 -0.112668
v -0.194622 1.189899 -0.112668
v 0.234511 1.019971 0.165356
v -0.234511 1.019971 0.165356
v 0.234511 1.200293 -0.129673
v -0.234511 1.200293 -0.129673
v 0.194622 1.015933 0.139529
v -0.194622 1.015933 0.139529
v 0.194622 1.175467 -0.121489
v -0.194622 1.175467 -0.121489
vt 1.000000 0.000000
vt 0.000000 1.000000
vt 0.000000 0.000000
vt 1.000000 0.000000
vt 0.000000 1.000000
vt 0.000000 0.000000
vt 1.000000 0.000000
vt 0.000000 1.000000
vt 0.000000 0.000000
vt 1.000000 0.000000
vt 0.000000 0.000000
vt 1.000000 0.000000
vt 0.000000 1.000000
vt 0.000000 0.000000
vt 1.000000 0.000000
vt 0.000000 1.000000
vt 0.000000 0.000000
vt 1.000000 1.000000
vt 0.000000 1.000000
vt 0.000000 0.000000
vt 1.000000 1.000000
vt 0.000000 1.000000
vt 0.000000 0.000000
vt 1.000000 1.000000
vt 0.000000 1.000000
vt 0.000000 0.000000
vt 1.000000 1.000000
vt 0.000000 1.000000
vt 0.000000 0.000000
vt 1.000000 1.000000
vt 0.000000 1.000000
vt 1.000000 1.000000
vt 0.000000 1.000000
vt 0.000000 0.000000
vt 1.000000 1.000000
vt 0.000000 1.000000
vt 0.000000 0.000000
vt 1.000000 1.000000
vt 0.000000 1.000000
vt 0.000000 0.000000
vt 1.000000 1.000000
vt 0.000000 1.000000
vt 1.000000 0.000000
vt 0.000000 1.000000
vt 1.000000 1.000000
vt 0.000000 1.000000
vt 1.000000 0.000000
vt 0.000000 1.000000
vt 1.000000 0.000000
vt 0.000000 0.000000
vt 1.000000 0.000000
vt 0.000000 0.000000
vt 0.000000 0.000000
vt 1.000000 1.000000
vt 1.000000 0.000000
vt 1.000000 0.000000
vt 0.000000 1.000000
vt 0.000000 0.000000
vt 0.000000 1.000000
vt 1.000000 0.000000
vt 0.000000 1.000000
vt 0.000000 1.000000
vt 1.000000 0.000000
vt 0.000000 1.000000
vt 0.000000 0.000000
vt 1.000000 0.000000
vt 0.000000 1.000000
vt 0.000000 0.000000
vt 0.000000 0.000000
vt 1.000000 1.000000
vt 0.000000 1.000000
vt 1.000000 0.000000
vt 0.000000 1.000000
vt 0.000000 0.000000
vt 0.000000 0.000000
vt 1.000000 0.000000
vt 0.000000 0.000000
vt 0.000000 0.000000
vt 1.000000 1.000000
vt 1.000000 0.000000
vt 1.000000 0.000000
vt 0.000000 1.000000
vt 0.000000 0.000000
vt 0.000000 1.000000
vt 1.000000 0.000000
vt 0.000000 1.000000
vt 1.000000 1.000000
vt 1.000000 1.000000
vt 1.000000 0.000000
vt 1.000000 0.000000
vt 1.000000 0.000000
vt 1.000000 0.000000
vt 1.000000 0.000000
vt 1.000000 1.000000
vt 1.000000 1.000000
vt 1.000000 1.000000
vt 1.000000 1.000000
vt 1.000000 1.000000
vt 1.000000 1.000000
vt 1.000000 1.000000
vt 1.000000 0.000000
vt 1.000000 1.000000
vt 1.000000 1.000000
vt 1.000000 1.000000
vn 0.0000 0.0000 -1.0000
vn 0.0000 0.0000 1.0000
vn -1.0000 0.0000 0.0000
vn 0.0000 -1.0000 0.0000
vn 1.0000 0.0000 0.0000
vn 0.0000 0.9250 0.3799
vn 0.3799 0.9250 0.0000
vn -0.3799 0.9250 0.0000
vn 0.0000 0.9250 -0.3799
vn -0.0000 -0.8532 -0.5215
vn 0.0000 -0.0935 0.9956
vn 0.9946 -0.0884 -0.0540
vn -0.9946 -0.0884 -0.0540
vn 0.0000 -0.0840 -0.9965
vn 0.0000 0.5215 -0.8532
vn 0.0000 -0.5215 0.8532
vn 0.0000 0.8532 0.5215
usemtl Material
s off
f 5/1/1 23/2/1 1/3/1
f 9/4/2 8/5/2 4/6/2
f 10/7/3 6/8/3 8/9/3
f 2/10/4 8/5/4 6/11/4
f 11/12/5 4/13/5 2/14/5
f 12/15/1 2/16/1 6/11/1
f 13/17/2 10/18/2 9/19/2
f 15/20/2 9/21/2 11/22/2
f 14/23/2 12/24/2 10/25/2
f 16/26/2 11/27/2 12/28/2
f 3/29/6 14/30/6 13/31/6
f 1/3/7 13/32/7 15/33/7
f 7/34/8 16/35/8 14/36/8
f 5/37/9 15/38/9 16/39/9
f 20/40/10 26/41/10 28/42/10
f 1/43/5 21/44/5 3/29/5
f 5/37/3 22/45/3 24/46/3
f 3/47/2 22/48/2 7/34/2
f 18/49/11 21/44/11 17/50/11
f 17/51/12 23/2/12 19/52/12
f 18/53/13 24/54/13 22/48/13
f 19/55/14 24/46/14 20/40/14
f 28/56/15 35/57/15 27/58/15
f 17/51/10 26/59/10 18/53/10
f 20/60/10 27/61/10 19/52/10
f 19/55/10 25/62/10 17/50/10
f 30/63/5 40/64/5 32/65/5
f 27/66/5 33/67/5 25/68/5
f 28/69/3 34/70/3 36/71/3
f 25/72/16 34/73/16 26/74/16
f 30/63/17 33/67/17 29/75/17
f 29/76/17 35/57/17 31/77/17
f 30/78/17 36/79/17 34/73/17
f 31/80/17 36/71/17 32/65/17
f 40/81/17 37/82/17 39/83/17
f 29/76/15 38/84/15 30/78/15
f 32/85/16 39/86/16 31/77/16
f 29/75/3 39/87/3 37/82/3
f 5/1/1 24/54/1 23/2/1
f 9/4/2 10/18/2 8/5/2
f 10/7/3 12/24/3 6/8/3
f 2/10/4 4/88/4 8/5/4
f 11/12/5 9/21/5 4/13/5
f 12/15/1 11/27/1 2/16/1
f 13/17/2 14/89/2 10/18/2
f 15/20/2 13/90/2 9/21/2
f 14/23/2 16/91/2 12/24/2
f 16/26/2 15/92/2 11/27/2
f 3/29/6 7/93/6 14/30/6
f 1/3/7 3/47/7 13/32/7
f 7/34/8 5/1/8 16/35/8
f 5/37/9 1/43/9 15/38/9
f 20/40/10 18/49/10 26/41/10
f 1/43/5 23/94/5 21/44/5
f 5/37/3 7/93/3 22/45/3
f 3/47/2 21/95/2 22/48/2
f 18/49/11 22/45/11 21/44/11
f 17/51/12 21/95/12 23/2/12
f 18/53/13 20/60/13 24/54/13
f 19/55/14 23/94/14 24/46/14
f 28/56/15 36/79/15 35/57/15
f 17/51/10 25/96/10 26/59/10
f 20/60/10 28/97/10 27/61/10
f 19/55/10 27/98/10 25/62/10
f 30/63/5 38/99/5 40/64/5
f 27/66/5 35/100/5 33/67/5
f 28/69/3 26/101/3 34/70/3
f 25/72/16 33/102/16 34/73/16
f 30/63/17 34/70/17 33/67/17
f 29/76/17 33/102/17 35/57/17
f 30/78/17 32/85/17 36/79/17
f 31/80/17 35/100/17 36/71/17
f 40/81/17 38/99/17 37/82/17
f 29/76/15 37/103/15 38/84/15
f 32/85/16 40/104/16 39/86/16
f 29/75/3 31/80/3 39/87/3
