# Blender v2.80 (sub 75) OBJ File: ''
# www.blender.org
mtllib sculpture.mtl
o Cylinder.001
v 0.000000 0.282825 -1.594495
v 0.000000 0.005725 -1.594495
v 1.127478 0.282825 -1.127478
v 1.127478 0.005725 -1.127478
v 1.594495 0.282825 0.000000
v 1.594495 0.005725 0.000000
v 1.127478 0.282825 1.127478
v 1.127478 0.005725 1.127478
v -0.000000 0.282825 1.594495
v -0.000000 0.005725 1.594495
v -1.127478 0.282825 1.127478
v -1.127478 0.005725 1.127478
v -1.594495 0.282825 -0.000000
v -1.594495 0.005725 -0.000000
v -1.127478 0.282825 -1.127478
v -1.127478 0.005725 -1.127478
v 0.000000 0.294275 -0.615113
v 0.000000 0.603770 -0.615113
v 0.434950 0.294275 -0.434950
v 0.434950 0.603770 -0.434950
v 0.615113 0.294275 0.000000
v 0.615113 0.603770 0.000000
v 0.434950 0.345858 0.434950
v 0.434950 0.655353 0.434950
v -0.000000 0.397440 0.615113
v -0.000000 0.706935 0.615113
v -0.434950 0.449023 0.434950
v -0.434950 0.758518 0.434950
v -0.615113 0.552188 -0.000000
v -0.615113 0.861683 -0.000000
v -0.434950 1.016430 -0.434950
v 0.000000 0.294275 -1.000000
v 0.707107 0.294275 -0.707107
v 0.707107 0.603770 -0.707107
v 0.000000 0.603770 -1.000000
v 1.000000 0.294275 0.000000
v 1.000000 0.603770 0.000000
v 0.707107 0.345858 0.707107
v 0.707107 0.655353 0.707107
v -0.000000 0.397440 1.000000
v -0.000000 0.706935 1.000000
v -0.707107 0.449023 0.707107
v -0.707107 0.758518 0.707107
v -1.000000 0.552188 -0.000000
v -1.000000 0.861683 -0.000000
v -0.707107 0.603770 -0.707107
v -0.707107 0.294275 -0.707107
v -0.434950 0.294275 -0.434950
v -0.434950 0.603770 -0.434950
v 0.000000 0.812403 -0.615113
v 0.000000 1.121897 -0.615113
v 0.434950 0.915568 -0.434950
v 0.434950 1.225062 -0.434950
v 0.615113 1.018733 0.000000
v 0.615113 1.328228 0.000000
v 0.434950 1.121897 0.434950
v 0.434950 1.431392 0.434950
v -0.000000 1.225062 0.615113
v -0.000000 1.534558 0.615113
v -0.434950 1.328227 0.434950
v -0.434950 1.637722 0.434950
v -0.615113 1.431392 -0.000000
v -0.615113 1.740887 -0.000000
v -0.434950 1.947217 -0.434950
v 0.000000 0.812403 -1.000000
v 0.707107 0.915568 -0.707107
v 0.707107 1.225062 -0.707107
v 0.000000 1.121897 -1.000000
v 1.000000 1.018733 0.000000
v 1.000000 1.328228 0.000000
v 0.707107 1.121897 0.707107
v 0.707107 1.431392 0.707107
v -0.000000 1.225062 1.000000
v -0.000000 1.534558 1.000000
v -0.707107 1.328227 0.707107
v -0.707107 1.637722 0.707107
v -1.000000 1.431392 -0.000000
v -1.000000 1.740887 -0.000000
v -0.707107 1.018733 -0.707107
v -0.707107 0.709238 -0.707107
v -0.434950 0.709238 -0.434950
v 0.000000 1.739431 -0.615113
v 0.000000 2.048926 -0.615113
v 0.434950 1.842596 -0.434950
v 0.434950 2.152091 -0.434950
v 0.615113 1.945761 0.000000
v 0.615113 2.255256 0.000000
v 0.434950 2.048926 0.434950
v 0.434950 2.358421 0.434950
v -0.000000 2.152091 0.615113
v -0.000000 2.461586 0.615113
v -0.434950 2.255256 0.434950
v -0.434950 2.564751 0.434950
v -0.615113 2.358421 -0.000000
v -0.615113 2.667916 -0.000000
v -0.434950 2.874246 -0.434950
v 0.000000 1.739431 -1.000000
v 0.707107 1.842596 -0.707107
v 0.707107 2.152091 -0.707107
v 0.000000 2.048926 -1.000000
v 1.000000 1.945761 0.000000
v 1.000000 2.255256 0.000000
v 0.707107 2.048926 0.707107
v 0.707107 2.358421 0.707107
v -0.000000 2.152091 1.000000
v -0.000000 2.461586 1.000000
v -0.707107 2.255256 0.707107
v -0.707107 2.564751 0.707107
v -1.000000 2.358421 -0.000000
v -1.000000 2.667916 -0.000000
v -0.707107 1.945761 -0.707107
v -0.707107 1.636267 -0.707107
v -0.434950 1.636267 -0.434950
v 0.000000 2.659461 -0.615113
v 0.000000 2.968956 -0.615113
v 0.434950 2.762625 -0.434950
v 0.434950 3.072120 -0.434950
v 0.615113 2.865790 0.000000
v 0.615113 3.175285 0.000000
v 0.434950 2.968956 0.434950
v 0.434950 3.278450 0.434950
v -0.000000 3.072120 0.615113
v -0.000000 3.381615 0.615113
v -0.434950 3.175285 0.434950
v -0.434950 3.484780 0.434950
v -0.615113 3.278450 -0.000000
v -0.615113 3.587945 -0.000000
v -0.434950 3.484780 -0.434950
v -0.434950 3.794275 -0.434950
v 0.000000 2.659461 -1.000000
v 0.707107 2.762625 -0.707107
v 0.707107 3.072120 -0.707107
v 0.000000 2.968956 -1.000000
v 1.000000 2.865790 0.000000
v 1.000000 3.175285 0.000000
v 0.707107 2.968956 0.707107
v 0.707107 3.278450 0.707107
v -0.000000 3.072120 1.000000
v -0.000000 3.381615 1.000000
v -0.707107 3.175285 0.707107
v -0.707107 3.484780 0.707107
v -1.000000 3.278450 -0.000000
v -1.000000 3.587945 -0.000000
v -0.707107 3.484780 -0.707107
v -0.707107 3.794275 -0.707107
v -0.707107 2.865790 -0.707107
v -0.707107 2.556296 -0.707107
v -0.434950 2.556296 -0.434950
vt 1.000000 0.000000
vt 0.000000 0.000000
vt 0.000000 1.000000
vt 1.000000 0.000000
vt 0.000000 0.000000
vt 0.000000 1.000000
vt 1.000000 0.000000
vt 0.000000 0.000000
vt 0.000000 1.000000
vt 1.000000 0.000000
vt 0.000000 0.000000
vt 0.000000 1.000000
vt 1.000000 0.000000
vt 0.000000 0.000000
vt 0.000000 1.000000
vt 1.000000 0.000000
vt 0.000000 0.000000
vt 0.000000 1.000000
vt 0.146447 0.853553
vt 0.853553 0.146447
vt 0.853553 0.853553
vt 1.000000 0.000000
vt 0.000000 0.000000
vt 0.000000 1.000000
vt 1.000000 0.000000
vt 0.000000 0.000000
vt 0.000000 1.000000
vt 0.853553 0.146447
vt 0.146447 0.853553
vt 0.146447 0.146447
vt 0.000000 0.000000
vt 0.000000 1.000000
vt 1.000000 1.000000
vt 1.000000 0.000000
vt 0.000000 0.000000
vt 0.000000 1.000000
vt 1.000000 0.000000
vt 0.000000 0.000000
vt 0.000000 1.000000
vt 1.000000 0.000000
vt 0.000000 0.000000
vt 0.000000 1.000000
vt 1.000000 0.000000
vt 0.000000 0.000000
vt 0.000000 1.000000
vt 1.000000 0.000000
vt 0.000000 0.000000
vt 0.000000 1.000000
vt 1.000000 0.000000
vt 0.000000 0.000000
vt 0.000000 1.000000
vt 1.000000 0.000000
vt 0.000000 0.000000
vt 0.000000 0.000000
vt 0.000000 1.000000
vt 0.000000 0.000000
vt 1.000000 1.000000
vt 0.000000 0.000000
vt 0.000000 1.000000
vt 1.000000 1.000000
vt 1.000000 0.000000
vt 0.000000 0.000000
vt 1.000000 0.000000
vt 0.000000 0.000000
vt 0.000000 1.000000
vt 0.000000 0.000000
vt 1.000000 1.000000
vt 1.000000 0.000000
vt 0.000000 0.000000
vt 0.000000 1.000000
vt 1.000000 0.000000
vt 0.000000 0.000000
vt 1.000000 0.000000
vt 0.000000 0.000000
vt 0.000000 1.000000
vt 1.000000 0.000000
vt 0.000000 0.000000
vt 1.000000 0.000000
vt 0.000000 0.000000
vt 0.000000 1.000000
vt 1.000000 0.000000
vt 0.000000 0.000000
vt 1.000000 0.000000
vt 0.000000 0.000000
vt 0.000000 1.000000
vt 1.000000 0.000000
vt 0.000000 1.000000
vt 0.000000 1.000000
vt 0.000000 1.000000
vt 1.000000 0.000000
vt 0.000000 1.000000
vt 0.000000 1.000000
vt 0.000000 1.000000
vt 1.000000 1.000000
vt 0.000000 0.000000
vt 0.000000 1.000000
vt 1.000000 0.000000
vt 0.000000 1.000000
vt 1.000000 0.000000
vt 0.000000 0.000000
vt 0.000000 1.000000
vt 0.000000 0.000000
vt 0.000000 1.000000
vt 1.000000 1.000000
vt 0.000000 0.000000
vt 0.000000 1.000000
vt 1.000000 1.000000
vt 1.000000 0.000000
vt 0.000000 0.000000
vt 0.000000 1.000000
vt 1.000000 0.000000
vt 0.000000 0.000000
vt 0.000000 1.000000
vt 1.000000 0.000000
vt 0.000000 0.000000
vt 0.000000 1.000000
vt 1.000000 0.000000
vt 0.000000 0.000000
vt 0.000000 1.000000
vt 1.000000 0.000000
vt 0.000000 0.000000
vt 0.000000 1.000000
vt 1.000000 0.000000
vt 0.000000 0.000000
vt 0.000000 1.000000
vt 1.000000 0.000000
vt 0.000000 0.000000
vt 0.000000 1.000000
vt 1.000000 0.000000
vt 0.000000 0.000000
vt 1.000000 0.000000
vt 0.000000 0.000000
vt 0.000000 1.000000
vt 0.000000 0.000000
vt 1.000000 1.000000
vt 1.000000 0.000000
vt 0.000000 0.000000
vt 0.000000 1.000000
vt 1.000000 0.000000
vt 0.000000 0.000000
vt 1.000000 0.000000
vt 0.000000 0.000000
vt 0.000000 1.000000
vt 1.000000 0.000000
vt 0.000000 0.000000
vt 1.000000 0.000000
vt 0.000000 0.000000
vt 0.000000 1.000000
vt 1.000000 0.000000
vt 0.000000 0.000000
vt 1.000000 0.000000
vt 0.000000 0.000000
vt 0.000000 1.000000
vt 0.000000 0.000000
vt 1.000000 1.000000
vt 1.000000 0.000000
vt 0.000000 0.000000
vt 0.000000 1.000000
vt 1.000000 0.000000
vt 0.000000 0.000000
vt 1.000000 0.000000
vt 0.000000 0.000000
vt 1.000000 0.000000
vt 0.000000 1.000000
vt 1.000000 0.000000
vt 0.000000 1.000000
vt 0.000000 1.000000
vt 0.000000 1.000000
vt 0.000000 1.000000
vt 1.000000 0.000000
vt 0.000000 1.000000
vt 0.000000 0.000000
vt 1.000000 0.000000
vt 0.000000 1.000000
vt 1.000000 0.000000
vt 0.000000 0.000000
vt 0.000000 1.000000
vt 0.000000 0.000000
vt 0.000000 1.000000
vt 1.000000 1.000000
vt 0.000000 0.000000
vt 0.000000 1.000000
vt 1.000000 0.000000
vt 0.000000 0.000000
vt 0.000000 1.000000
vt 1.000000 0.000000
vt 0.000000 0.000000
vt 0.000000 1.000000
vt 1.000000 0.000000
vt 0.000000 0.000000
vt 0.000000 1.000000
vt 1.000000 0.000000
vt 0.000000 0.000000
vt 0.000000 1.000000
vt 1.000000 0.000000
vt 0.000000 0.000000
vt 0.000000 1.000000
vt 1.000000 0.000000
vt 0.000000 0.000000
vt 0.000000 1.000000
vt 1.000000 0.000000
vt 0.000000 0.000000
vt 0.000000 1.000000
vt 1.000000 0.000000
vt 0.000000 0.000000
vt 1.000000 0.000000
vt 0.000000 0.000000
vt 0.000000 1.000000
vt 1.000000 0.000000
vt 0.000000 0.000000
vt 1.000000 0.000000
vt 0.000000 0.000000
vt 0.000000 1.000000
vt 1.000000 0.000000
vt 0.000000 0.000000
vt 0.000000 0.000000
vt 0.000000 1.000000
vt 1.000000 1.000000
vt 0.000000 0.000000
vt 1.000000 1.000000
vt 1.000000 0.000000
vt 0.000000 0.000000
vt 0.000000 1.000000
vt 0.000000 0.000000
vt 1.000000 1.000000
vt 1.000000 0.000000
vt 0.000000 0.000000
vt 0.000000 1.000000
vt 1.000000 0.000000
vt 0.000000 0.000000
vt 1.000000 0.000000
vt 0.000000 0.000000
vt 0.000000 1.000000
vt 1.000000 0.000000
vt 0.000000 0.000000
vt 0.000000 0.000000
vt 1.000000 1.000000
vt 1.000000 0.000000
vt 0.000000 1.000000
vt 0.000000 1.000000
vt 1.000000 0.000000
vt 0.000000 1.000000
vt 1.000000 0.000000
vt 0.000000 1.000000
vt 0.000000 1.000000
vt 0.000000 1.000000
vt 0.000000 0.000000
vt 1.000000 0.000000
vt 0.000000 1.000000
vt 1.000000 0.000000
vt 0.000000 0.000000
vt 0.000000 1.000000
vt 0.000000 0.000000
vt 0.000000 1.000000
vt 1.000000 1.000000
vt 0.000000 0.000000
vt 0.000000 1.000000
vt 1.000000 0.000000
vt 0.000000 0.000000
vt 0.000000 1.000000
vt 1.000000 0.000000
vt 0.000000 0.000000
vt 0.000000 1.000000
vt 1.000000 0.000000
vt 0.000000 0.000000
vt 0.000000 1.000000
vt 1.000000 0.000000
vt 0.000000 0.000000
vt 0.000000 1.000000
vt 1.000000 0.000000
vt 0.000000 0.000000
vt 0.000000 1.000000
vt 1.000000 0.000000
vt 0.000000 0.000000
vt 0.000000 1.000000
vt 1.000000 0.000000
vt 0.000000 0.000000
vt 0.000000 1.000000
vt 1.000000 0.000000
vt 0.000000 0.000000
vt 0.000000 0.000000
vt 0.000000 1.000000
vt 1.000000 1.000000
vt 0.000000 0.000000
vt 1.000000 1.000000
vt 1.000000 0.000000
vt 0.000000 0.000000
vt 0.000000 1.000000
vt 1.000000 0.000000
vt 0.000000 0.000000
vt 0.000000 0.000000
vt 0.000000 1.000000
vt 1.000000 1.000000
vt 1.000000 0.000000
vt 0.000000 0.000000
vt 1.000000 0.000000
vt 0.000000 0.000000
vt 0.000000 1.000000
vt 1.000000 0.000000
vt 0.000000 0.000000
vt 1.000000 0.000000
vt 0.000000 0.000000
vt 0.000000 1.000000
vt 1.000000 0.000000
vt 0.000000 0.000000
vt 0.000000 0.000000
vt 0.000000 1.000000
vt 1.000000 1.000000
vt 0.000000 0.000000
vt 1.000000 1.000000
vt 0.000000 0.000000
vt 1.000000 1.000000
vt 1.000000 0.000000
vt 0.000000 1.000000
vt 0.000000 1.000000
vt 0.000000 1.000000
vt 0.000000 1.000000
vt 0.000000 1.000000
vt 1.000000 0.000000
vt 0.000000 1.000000
vt 0.000000 0.000000
vt 1.000000 0.000000
vt 0.000000 1.000000
vt 1.000000 0.000000
vt 0.000000 0.000000
vt 0.000000 1.000000
vt 0.000000 0.000000
vt 0.000000 1.000000
vt 1.000000 1.000000
vt 1.000000 0.000000
vt 0.000000 0.000000
vt 0.000000 1.000000
vt 1.000000 0.000000
vt 0.000000 0.000000
vt 1.000000 0.000000
vt 0.000000 0.000000
vt 1.000000 1.000000
vt 1.000000 1.000000
vt 1.000000 1.000000
vt 1.000000 1.000000
vt 1.000000 1.000000
vt 1.000000 1.000000
vt 0.500000 1.000000
vt 1.000000 0.500000
vt 0.146447 0.146447
vt 0.500000 0.000000
vt 0.000000 0.500000
vt 1.000000 1.000000
vt 1.000000 1.000000
vt 0.853553 0.853553
vt 0.500000 1.000000
vt 1.000000 0.500000
vt 0.500000 0.000000
vt 0.000000 0.500000
vt 1.000000 0.000000
vt 1.000000 1.000000
vt 1.000000 1.000000
vt 1.000000 1.000000
vt 1.000000 1.000000
vt 1.000000 1.000000
vt 1.000000 1.000000
vt 1.000000 0.000000
vt 1.000000 0.000000
vt 1.000000 0.000000
vt 1.000000 1.000000
vt 1.000000 1.000000
vt 1.000000 1.000000
vt 1.000000 1.000000
vt 1.000000 1.000000
vt 1.000000 1.000000
vt 1.000000 1.000000
vt 1.000000 1.000000
vt 1.000000 1.000000
vt 1.000000 1.000000
vt 1.000000 1.000000
vt 1.000000 1.000000
vt 1.000000 1.000000
vt 1.000000 1.000000
vt 1.000000 1.000000
vt 1.000000 1.000000
vt 1.000000 1.000000
vt 1.000000 1.000000
vt 1.000000 1.000000
vt 1.000000 1.000000
vt 1.000000 1.000000
vt 1.000000 1.000000
vt 1.000000 1.000000
vt 1.000000 1.000000
vt 1.000000 1.000000
vt 1.000000 1.000000
vt 1.000000 1.000000
vt 1.000000 1.000000
vt 1.000000 1.000000
vt 1.000000 1.000000
vt 1.000000 1.000000
vt 1.000000 1.000000
vt 1.000000 1.000000
vt 1.000000 1.000000
vt 1.000000 1.000000
vt 1.000000 1.000000
vt 1.000000 1.000000
vt 1.000000 1.000000
vt 1.000000 1.000000
vt 1.000000 1.000000
vt 1.000000 1.000000
vt 1.000000 0.000000
vt 1.000000 1.000000
vt 1.000000 0.000000
vt 1.000000 1.000000
vt 1.000000 1.000000
vt 1.000000 1.000000
vt 1.000000 1.000000
vt 1.000000 1.000000
vt 1.000000 1.000000
vt 1.000000 1.000000
vt 1.000000 1.000000
vt 1.000000 1.000000
vt 1.000000 1.000000
vt 1.000000 1.000000
vt 1.000000 1.000000
vt 1.000000 1.000000
vt 1.000000 0.000000
vt 1.000000 1.000000
vt 1.000000 0.000000
vt 1.000000 1.000000
vt 1.000000 1.000000
vt 1.000000 1.000000
vt 1.000000 0.000000
vt 1.000000 0.000000
vt 1.000000 1.000000
vt 1.000000 1.000000
vt 1.000000 1.000000
vt 1.000000 1.000000
vt 1.000000 1.000000
vt 1.000000 1.000000
vt 1.000000 1.000000
vt 1.000000 1.000000
vt 1.000000 1.000000
vt 1.000000 1.000000
vt 1.000000 1.000000
vn 0.3827 0.0000 -0.9239
vn 0.9239 0.0000 -0.3827
vn 0.9239 0.0000 0.3827
vn 0.3827 0.0000 0.9239
vn -0.3827 0.0000 0.9239
vn -0.9239 0.0000 0.3827
vn 0.0000 -1.0000 0.0000
vn -0.9239 0.0000 -0.3827
vn -0.3827 0.0000 -0.9239
vn 0.0000 1.0000 0.0000
vn 0.0833 0.9930 -0.0833
vn 0.0000 -0.9930 0.1178
vn 0.0728 0.9973 0.0000
vn -0.0833 -0.9930 0.0833
vn 0.0833 0.9930 0.0833
vn -0.1178 -0.9930 -0.0000
vn 0.0000 0.9730 0.2308
vn -0.1632 -0.9730 -0.1632
vn 0.0000 0.9406 0.3396
vn 0.1475 -0.9767 -0.1558
vn -0.1632 0.9730 -0.1632
vn 0.2308 -0.9730 0.0000
vn 0.0000 0.9895 -0.1444
vn 0.1632 -0.9730 0.1632
vn 0.1632 0.9730 -0.1632
vn 0.0000 -0.9730 0.2308
vn 0.2308 0.9730 -0.0000
vn -0.1632 -0.9730 0.1632
vn 0.1632 0.9730 0.1632
vn -0.2308 -0.9730 -0.0000
vn 0.0000 0.9895 0.1444
vn -0.2308 0.9730 0.0000
vn 0.1641 -0.9713 -0.1723
vn 0.0000 0.9047 0.4261
vn 0.0000 -0.9605 -0.2783
vn 0.0000 0.9730 -0.2308
vn 0.0000 -0.9895 0.1444
vn 0.1444 0.9895 0.0000
vn 0.1021 0.9895 0.1021
vn 0.1037 -0.9897 -0.0984
vn 0.0000 0.9102 0.4141
vn 0.0000 -0.9630 -0.2695
vn 0.1444 -0.9895 0.0000
vn -0.1021 -0.9895 -0.1021
vn -0.1444 0.9895 0.0000
vn 0.1112 -0.9905 -0.0804
vn 0.0000 0.9035 0.4286
vn 0.0000 -0.9600 -0.2801
vn -0.7071 0.0000 0.7071
vn 0.7071 0.0000 -0.7071
vn 0.0000 0.9973 -0.0728
vn -0.0514 -0.9973 0.0514
vn -0.0728 -0.9973 -0.0000
vn -0.0514 -0.9973 -0.0514
vn 0.0000 -0.9895 -0.1444
vn -0.1533 0.9762 0.1533
vn 0.0000 -0.9421 -0.3352
vn 0.1021 -0.9895 0.1021
vn -0.1021 -0.9895 0.1021
vn 0.1021 0.9895 -0.1021
vn -0.1444 -0.9895 0.0000
vn -0.1021 0.9895 0.1021
vn -0.1968 0.9605 0.1968
vn 0.3063 -0.9029 -0.3015
vn -0.1021 0.9895 -0.1021
vn 0.2277 -0.9737 -0.0000
vn -0.1906 0.9630 0.1906
vn 0.3217 -0.9001 -0.2937
vn 0.0000 -0.9730 -0.2308
vn -0.1632 0.9730 0.1632
vn 0.2128 -0.9771 -0.0000
vn -0.1981 0.9600 0.1981
vn 0.3031 -0.9035 -0.3031
usemtl None
s off
f 2/1/1 1/2/1 3/3/1
f 4/4/2 3/5/2 5/6/2
f 6/7/3 5/8/3 7/9/3
f 8/10/4 7/11/4 9/12/4
f 10/13/5 9/14/5 11/15/5
f 12/16/6 11/17/6 13/18/6
f 6/19/7 14/20/7 2/21/7
f 14/22/8 13/23/8 15/24/8
f 16/25/9 15/26/9 1/27/9
f 7/28/10 15/29/10 11/30/10
f 32/31/5 33/32/5 34/33/5
f 34/34/6 33/35/6 36/36/6
f 37/37/8 36/38/8 38/39/8
f 39/40/9 38/41/9 40/42/9
f 41/43/1 40/44/1 42/45/1
f 43/46/2 42/47/2 44/48/2
f 46/49/4 47/50/4 32/51/4
f 17/52/10 19/53/10 33/32/10
f 18/54/7 35/55/7 34/33/7
f 21/56/10 36/36/10 33/57/10
f 20/58/7 34/59/7 37/60/7
f 21/61/11 23/62/11 38/39/11
f 24/63/12 22/64/12 37/65/12
f 25/66/13 40/42/13 38/67/13
f 26/68/14 24/69/14 39/70/14
f 25/71/15 27/72/15 42/45/15
f 28/73/16 26/74/16 41/75/16
f 27/76/17 29/77/17 44/48/17
f 30/78/18 28/79/18 43/80/18
f 48/81/10 17/82/10 32/51/10
f 18/83/7 49/84/7 46/85/7
f 29/86/6 27/72/6 28/87/6
f 27/76/5 25/66/5 26/88/5
f 25/71/4 23/62/4 24/89/4
f 23/90/3 21/56/3 22/91/3
f 21/61/2 19/53/2 20/92/2
f 17/82/1 18/93/1 20/94/1
f 17/52/9 48/95/9 49/96/9
f 44/97/19 29/77/19 81/98/19
f 45/99/3 44/100/3 80/101/3
f 30/102/8 31/103/8 81/104/8
f 45/105/20 79/106/20 31/107/20
f 68/108/5 65/109/5 66/110/5
f 67/111/6 66/112/6 69/113/6
f 70/114/8 69/115/8 71/116/8
f 72/117/9 71/118/9 73/119/9
f 74/120/1 73/121/1 75/122/1
f 76/123/2 75/124/2 77/125/2
f 79/126/4 80/127/4 65/128/4
f 50/129/21 52/130/21 66/110/21
f 53/131/22 51/132/22 68/133/22
f 54/134/23 69/113/23 66/135/23
f 55/136/24 53/137/24 67/138/24
f 54/139/25 56/140/25 71/116/25
f 57/141/26 55/142/26 70/143/26
f 56/144/27 58/145/27 73/119/27
f 59/146/28 57/147/28 72/148/28
f 58/149/29 60/150/29 75/122/29
f 61/151/30 59/152/30 74/153/30
f 62/154/31 77/125/31 75/155/31
f 63/156/18 61/157/18 76/158/18
f 81/159/32 50/160/32 65/128/32
f 51/161/33 31/162/33 79/106/33
f 62/163/6 60/150/6 61/164/6
f 60/165/5 58/145/5 59/166/5
f 58/149/4 56/140/4 57/167/4
f 56/144/3 54/134/3 55/168/3
f 54/139/2 52/130/2 53/169/2
f 52/170/1 50/160/1 51/171/1
f 50/129/9 81/172/9 31/103/9
f 77/173/34 62/154/34 113/174/34
f 78/175/3 77/176/3 112/177/3
f 63/178/8 64/179/8 113/180/8
f 63/156/35 78/181/35 111/182/35
f 100/183/5 97/184/5 98/185/5
f 99/186/6 98/187/6 101/188/6
f 102/189/8 101/190/8 103/191/8
f 104/192/9 103/193/9 105/194/9
f 106/195/1 105/196/1 107/197/1
f 108/198/2 107/199/2 109/200/2
f 111/201/4 112/202/4 97/203/4
f 82/204/21 84/205/21 98/185/21
f 85/206/22 83/207/22 100/208/22
f 84/209/36 86/210/36 101/188/36
f 87/211/24 85/212/24 99/213/24
f 86/214/25 88/215/25 103/191/25
f 87/216/37 102/217/37 104/218/37
f 90/219/38 105/194/38 103/220/38
f 91/221/28 89/222/28 104/223/28
f 92/224/39 107/197/39 105/225/39
f 93/226/30 91/227/30 106/228/30
f 92/229/17 94/230/17 109/200/17
f 95/231/18 93/232/18 108/233/18
f 113/234/32 82/235/32 97/203/32
f 64/236/40 111/182/40 100/237/40
f 94/238/6 92/224/6 93/239/6
f 92/229/5 90/219/5 91/240/5
f 90/241/4 88/215/4 89/242/4
f 88/243/3 86/210/3 87/244/3
f 86/214/2 84/205/2 85/245/2
f 84/209/1 82/235/1 83/246/1
f 82/204/9 113/247/9 64/179/9
f 109/248/41 94/230/41 148/249/41
f 110/250/3 109/251/3 147/252/3
f 95/253/8 96/254/8 148/255/8
f 95/231/42 110/256/42 146/257/42
f 133/258/5 130/259/5 131/260/5
f 132/261/6 131/262/6 134/263/6
f 135/264/8 134/265/8 136/266/8
f 137/267/9 136/268/9 138/269/9
f 139/270/1 138/271/1 140/272/1
f 141/273/2 140/274/2 142/275/2
f 146/276/4 147/277/4 130/278/4
f 114/279/21 116/280/21 131/260/21
f 115/281/43 133/282/43 132/283/43
f 118/284/23 134/263/23 131/285/23
f 119/286/24 117/287/24 132/288/24
f 118/289/25 120/290/25 136/266/25
f 119/291/37 135/292/37 137/293/37
f 120/294/27 122/295/27 138/269/27
f 123/296/28 121/297/28 137/298/28
f 122/299/29 124/300/29 140/272/29
f 125/301/30 123/302/30 139/303/30
f 124/304/17 126/305/17 142/275/17
f 125/306/44 141/307/44 143/308/44
f 114/309/45 130/278/45 147/310/45
f 96/311/46 146/257/46 133/312/46
f 126/313/6 124/300/6 125/314/6
f 124/304/5 122/295/5 123/315/5
f 122/299/4 120/290/4 121/316/4
f 120/294/3 118/284/3 119/317/3
f 118/289/2 116/280/2 117/318/2
f 116/319/1 114/309/1 115/320/1
f 114/279/9 148/321/9 96/254/9
f 142/322/47 126/305/47 128/323/47
f 143/324/3 142/325/3 144/326/3
f 127/327/8 129/328/8 128/329/8
f 127/330/48 143/331/48 145/332/48
f 145/333/49 144/334/49 128/323/49
f 47/335/50 46/336/50 49/96/50
f 2/1/1 3/3/1 4/337/1
f 4/4/2 5/6/2 6/338/2
f 6/7/3 7/9/3 8/339/3
f 8/10/4 9/12/4 10/340/4
f 10/13/5 11/15/5 12/341/5
f 12/16/6 13/18/6 14/342/6
f 6/19/7 2/21/7 4/343/7
f 2/21/7 14/20/7 16/344/7
f 14/20/7 10/345/7 12/346/7
f 10/345/7 14/20/7 8/347/7
f 8/347/7 14/20/7 6/19/7
f 14/22/8 15/24/8 16/348/8
f 16/25/9 1/27/9 2/349/9
f 15/29/10 3/350/10 1/351/10
f 3/350/10 7/28/10 5/352/10
f 7/28/10 11/30/10 9/353/10
f 11/30/10 15/29/10 13/354/10
f 15/29/10 7/28/10 3/350/10
f 32/31/5 34/33/5 35/355/5
f 34/34/6 36/36/6 37/60/6
f 37/37/8 38/39/8 39/356/8
f 39/40/9 40/42/9 41/357/9
f 41/43/1 42/45/1 43/358/1
f 43/46/2 44/48/2 45/359/2
f 46/49/4 32/51/4 35/360/4
f 17/52/10 33/32/10 32/361/10
f 18/54/7 34/33/7 20/362/7
f 21/56/10 33/57/10 19/363/10
f 20/58/7 37/60/7 22/364/7
f 21/61/51 38/39/51 36/365/51
f 24/63/52 37/65/52 39/356/52
f 25/66/11 38/67/11 23/90/11
f 26/68/53 39/70/53 41/357/53
f 25/71/13 42/45/13 40/366/13
f 28/73/54 41/75/54 43/358/54
f 27/76/39 44/48/39 42/367/39
f 30/78/55 43/80/55 45/359/55
f 48/81/10 32/51/10 47/368/10
f 18/83/7 46/85/7 35/360/7
f 29/86/6 28/87/6 30/369/6
f 27/76/5 26/88/5 28/370/5
f 25/71/4 24/89/4 26/371/4
f 23/90/3 22/91/3 24/372/3
f 21/61/2 20/92/2 22/373/2
f 17/82/1 20/94/1 19/363/1
f 17/52/9 49/96/9 18/374/9
f 44/97/56 81/98/56 80/375/56
f 45/99/3 80/101/3 79/376/3
f 30/102/8 81/104/8 29/86/8
f 45/105/57 31/107/57 30/78/57
f 68/108/5 66/110/5 67/377/5
f 67/111/6 69/113/6 70/378/6
f 70/114/8 71/116/8 72/379/8
f 72/117/9 73/119/9 74/380/9
f 74/120/1 75/122/1 76/381/1
f 76/123/2 77/125/2 78/382/2
f 79/126/4 65/128/4 68/383/4
f 50/129/45 66/110/45 65/384/45
f 53/131/58 68/133/58 67/377/58
f 54/134/21 66/135/21 52/170/21
f 55/136/37 67/138/37 70/378/37
f 54/139/23 71/116/23 69/385/23
f 57/141/59 70/143/59 72/379/59
f 56/144/60 73/119/60 71/386/60
f 59/146/61 72/148/61 74/380/61
f 58/149/38 75/122/38 73/387/38
f 61/151/44 74/153/44 76/381/44
f 62/154/29 75/155/29 60/165/29
f 63/156/55 76/158/55 78/382/55
f 81/159/62 65/128/62 80/375/62
f 51/161/43 79/106/43 68/383/43
f 62/163/6 61/164/6 63/388/6
f 60/165/5 59/166/5 61/389/5
f 58/149/4 57/167/4 59/390/4
f 56/144/3 55/168/3 57/391/3
f 54/139/2 53/169/2 55/392/2
f 52/170/1 51/171/1 53/393/1
f 50/129/9 31/103/9 51/394/9
f 77/173/63 113/174/63 112/395/63
f 78/175/3 112/177/3 111/396/3
f 63/178/8 113/180/8 62/163/8
f 63/156/64 111/182/64 64/397/64
f 100/183/5 98/185/5 99/398/5
f 99/186/6 101/188/6 102/399/6
f 102/189/8 103/191/8 104/218/8
f 104/192/9 105/194/9 106/400/9
f 106/195/1 107/197/1 108/401/1
f 108/198/2 109/200/2 110/402/2
f 111/201/4 97/203/4 100/237/4
f 82/204/45 98/185/45 97/403/45
f 85/206/58 100/208/58 99/398/58
f 84/209/65 101/188/65 98/404/65
f 87/211/37 99/213/37 102/399/37
f 86/214/23 103/191/23 101/405/23
f 87/216/28 104/218/28 89/406/28
f 90/219/25 103/220/25 88/243/25
f 91/221/61 104/223/61 106/400/61
f 92/224/27 105/225/27 90/241/27
f 93/226/44 106/228/44 108/401/44
f 92/229/39 109/200/39 107/407/39
f 95/231/55 108/233/55 110/402/55
f 113/234/62 97/203/62 112/395/62
f 64/236/66 100/237/66 83/408/66
f 94/238/6 93/239/6 95/409/6
f 92/229/5 91/240/5 93/410/5
f 90/241/4 89/242/4 91/411/4
f 88/243/3 87/244/3 89/412/3
f 86/214/2 85/245/2 87/413/2
f 84/209/1 83/246/1 85/414/1
f 82/204/9 64/179/9 83/415/9
f 109/248/67 148/249/67 147/310/67
f 110/250/3 147/252/3 146/416/3
f 95/253/8 148/255/8 94/238/8
f 95/231/68 146/257/68 96/417/68
f 133/258/5 131/260/5 132/283/5
f 132/261/6 134/263/6 135/418/6
f 135/264/8 136/266/8 137/293/8
f 137/267/9 138/269/9 139/419/9
f 139/270/1 140/272/1 141/420/1
f 141/273/2 142/275/2 143/308/2
f 146/276/4 130/278/4 133/312/4
f 114/279/45 131/260/45 130/421/45
f 115/281/24 132/283/24 117/422/24
f 118/284/21 131/285/21 116/319/21
f 119/286/37 132/288/37 135/418/37
f 118/289/23 136/266/23 134/423/23
f 119/291/28 137/293/28 121/424/28
f 120/294/60 138/269/60 136/425/60
f 123/296/61 137/298/61 139/419/61
f 122/299/38 140/272/38 138/426/38
f 125/301/44 139/303/44 141/420/44
f 124/304/39 142/275/39 140/427/39
f 125/306/69 143/308/69 127/330/69
f 114/309/70 147/310/70 148/428/70
f 96/311/71 133/312/71 115/429/71
f 126/313/6 125/314/6 127/430/6
f 124/304/5 123/315/5 125/431/5
f 122/299/4 121/316/4 123/432/4
f 120/294/3 119/317/3 121/433/3
f 118/289/2 117/318/2 119/434/2
f 116/319/1 115/320/1 117/435/1
f 114/279/9 96/254/9 115/436/9
f 142/322/72 128/323/72 144/437/72
f 143/324/3 144/326/3 145/438/3
f 127/327/8 128/329/8 126/313/8
f 127/330/73 145/332/73 129/439/73
f 145/333/49 128/323/49 129/439/49
f 47/335/50 49/96/50 48/440/50
